ISO-10303-21;
HEADER;
/* Generated by software containing ST-Developer
 * from STEP Tools, Inc. (www.steptools.com) 
 */

FILE_DESCRIPTION(
/* description */ (''),
/* implementation_level */ '2;1');

FILE_NAME(
/* name */ 'top_case.step',
/* time_stamp */ '2026-09-15T21:14:40-04:00',
/* author */ (''),
/* organization */ (''),
/* preprocessor_version */ 'ST-DEVELOPER v20.2',
/* originating_system */ 'Autodesk Translation Framework v15.15.0.0',
/* authorisation */ '');

FILE_SCHEMA (('AUTOMOTIVE_DESIGN { 1 0 10303 214 3 1 1 }'));
ENDSEC;

DATA;
#10=MECHANICAL_DESIGN_GEOMETRIC_PRESENTATION_REPRESENTATION('',(#13),#1220);
#11=SHAPE_REPRESENTATION_RELATIONSHIP('SRR','None',#1227,#12);
#12=ADVANCED_BREP_SHAPE_REPRESENTATION('',(#14),#1219);
#13=STYLED_ITEM('',(#1237),#14);
#14=MANIFOLD_SOLID_BREP('Body1',#584);
#15=PLANE('',#624);
#16=PLANE('',#627);
#17=PLANE('',#636);
#18=PLANE('',#645);
#19=PLANE('',#646);
#20=PLANE('',#647);
#21=PLANE('',#648);
#22=PLANE('',#649);
#23=PLANE('',#650);
#24=PLANE('',#651);
#25=FACE_BOUND('',#86,.T.);
#26=FACE_BOUND('',#87,.T.);
#27=FACE_BOUND('',#88,.T.);
#28=FACE_BOUND('',#91,.T.);
#29=FACE_BOUND('',#92,.T.);
#30=FACE_BOUND('',#93,.T.);
#31=FACE_BOUND('',#95,.T.);
#32=FACE_BOUND('',#96,.T.);
#33=FACE_BOUND('',#97,.T.);
#34=FACE_BOUND('',#110,.T.);
#35=FACE_BOUND('',#111,.T.);
#36=FACE_BOUND('',#112,.T.);
#37=FACE_BOUND('',#115,.T.);
#38=ELLIPSE('',#621,14.1421356237309,10.);
#39=ELLIPSE('',#622,14.1421356237309,10.);
#40=ELLIPSE('',#638,14.1421356089367,10.);
#41=ELLIPSE('',#639,14.1421356385251,10.);
#42=ELLIPSE('',#641,14.1421356385254,10.);
#43=ELLIPSE('',#643,14.1421356089366,10.);
#44=TOROIDAL_SURFACE('',#610,9.2,0.8);
#45=TOROIDAL_SURFACE('',#617,19.2,0.8);
#46=TOROIDAL_SURFACE('',#628,19.2,0.8);
#47=TOROIDAL_SURFACE('',#633,9.2,0.8);
#48=FACE_OUTER_BOUND('',#76,.T.);
#49=FACE_OUTER_BOUND('',#77,.T.);
#50=FACE_OUTER_BOUND('',#78,.T.);
#51=FACE_OUTER_BOUND('',#79,.T.);
#52=FACE_OUTER_BOUND('',#80,.T.);
#53=FACE_OUTER_BOUND('',#81,.T.);
#54=FACE_OUTER_BOUND('',#82,.T.);
#55=FACE_OUTER_BOUND('',#83,.T.);
#56=FACE_OUTER_BOUND('',#84,.T.);
#57=FACE_OUTER_BOUND('',#85,.T.);
#58=FACE_OUTER_BOUND('',#89,.T.);
#59=FACE_OUTER_BOUND('',#90,.T.);
#60=FACE_OUTER_BOUND('',#94,.T.);
#61=FACE_OUTER_BOUND('',#98,.T.);
#62=FACE_OUTER_BOUND('',#99,.T.);
#63=FACE_OUTER_BOUND('',#100,.T.);
#64=FACE_OUTER_BOUND('',#101,.T.);
#65=FACE_OUTER_BOUND('',#102,.T.);
#66=FACE_OUTER_BOUND('',#103,.T.);
#67=FACE_OUTER_BOUND('',#104,.T.);
#68=FACE_OUTER_BOUND('',#105,.T.);
#69=FACE_OUTER_BOUND('',#106,.T.);
#70=FACE_OUTER_BOUND('',#107,.T.);
#71=FACE_OUTER_BOUND('',#108,.T.);
#72=FACE_OUTER_BOUND('',#109,.T.);
#73=FACE_OUTER_BOUND('',#113,.T.);
#74=FACE_OUTER_BOUND('',#114,.T.);
#75=FACE_OUTER_BOUND('',#116,.T.);
#76=EDGE_LOOP('',(#376,#377,#378,#379,#380));
#77=EDGE_LOOP('',(#381,#382,#383,#384,#385));
#78=EDGE_LOOP('',(#386,#387,#388,#389,#390));
#79=EDGE_LOOP('',(#391,#392,#393,#394,#395));
#80=EDGE_LOOP('',(#396,#397,#398,#399,#400));
#81=EDGE_LOOP('',(#401,#402,#403,#404,#405));
#82=EDGE_LOOP('',(#406,#407,#408,#409));
#83=EDGE_LOOP('',(#410,#411,#412,#413));
#84=EDGE_LOOP('',(#414,#415,#416,#417));
#85=EDGE_LOOP('',(#418,#419,#420,#421,#422,#423,#424,#425));
#86=EDGE_LOOP('',(#426,#427));
#87=EDGE_LOOP('',(#428,#429));
#88=EDGE_LOOP('',(#430,#431));
#89=EDGE_LOOP('',(#432,#433,#434,#435,#436,#437,#438,#439));
#90=EDGE_LOOP('',(#440,#441,#442,#443));
#91=EDGE_LOOP('',(#444,#445));
#92=EDGE_LOOP('',(#446,#447));
#93=EDGE_LOOP('',(#448,#449));
#94=EDGE_LOOP('',(#450,#451,#452,#453,#454,#455,#456,#457,#458,#459));
#95=EDGE_LOOP('',(#460));
#96=EDGE_LOOP('',(#461));
#97=EDGE_LOOP('',(#462));
#98=EDGE_LOOP('',(#463,#464,#465,#466));
#99=EDGE_LOOP('',(#467,#468,#469,#470));
#100=EDGE_LOOP('',(#471,#472,#473,#474));
#101=EDGE_LOOP('',(#475,#476,#477,#478,#479));
#102=EDGE_LOOP('',(#480,#481,#482,#483,#484));
#103=EDGE_LOOP('',(#485,#486,#487,#488));
#104=EDGE_LOOP('',(#489,#490,#491,#492,#493));
#105=EDGE_LOOP('',(#494,#495,#496,#497));
#106=EDGE_LOOP('',(#498,#499,#500,#501,#502));
#107=EDGE_LOOP('',(#503,#504,#505,#506,#507));
#108=EDGE_LOOP('',(#508,#509,#510,#511,#512));
#109=EDGE_LOOP('',(#513,#514,#515,#516,#517,#518,#519,#520,#521,#522));
#110=EDGE_LOOP('',(#523));
#111=EDGE_LOOP('',(#524));
#112=EDGE_LOOP('',(#525));
#113=EDGE_LOOP('',(#526,#527,#528,#529));
#114=EDGE_LOOP('',(#530,#531,#532,#533));
#115=EDGE_LOOP('',(#534,#535,#536,#537));
#116=EDGE_LOOP('',(#538,#539,#540,#541));
#117=CIRCLE('',#599,1.45);
#118=CIRCLE('',#601,1.45000000000001);
#119=CIRCLE('',#603,1.45);
#120=CIRCLE('',#605,1.45);
#121=CIRCLE('',#607,1.45);
#122=CIRCLE('',#609,1.45);
#123=CIRCLE('',#611,0.8);
#124=CIRCLE('',#612,9.2);
#125=CIRCLE('',#613,0.799999999999974);
#126=CIRCLE('',#614,10.);
#127=CIRCLE('',#616,0.800000000000001);
#128=CIRCLE('',#618,20.);
#129=CIRCLE('',#619,19.2);
#130=CIRCLE('',#623,10.);
#131=CIRCLE('',#626,20.);
#132=CIRCLE('',#629,19.2);
#133=CIRCLE('',#630,0.799999999999947);
#134=CIRCLE('',#632,0.799999999999983);
#135=CIRCLE('',#634,0.8);
#136=CIRCLE('',#635,9.2);
#137=LINE('',#850,#180);
#138=LINE('',#896,#181);
#139=LINE('',#942,#182);
#140=LINE('',#986,#183);
#141=LINE('',#1032,#184);
#142=LINE('',#1078,#185);
#143=LINE('',#1093,#186);
#144=LINE('',#1094,#187);
#145=LINE('',#1112,#188);
#146=LINE('',#1116,#189);
#147=LINE('',#1120,#190);
#148=LINE('',#1123,#191);
#149=LINE('',#1126,#192);
#150=LINE('',#1127,#193);
#151=LINE('',#1129,#194);
#152=LINE('',#1131,#195);
#153=LINE('',#1132,#196);
#154=LINE('',#1135,#197);
#155=LINE('',#1139,#198);
#156=LINE('',#1141,#199);
#157=LINE('',#1143,#200);
#158=LINE('',#1145,#201);
#159=LINE('',#1147,#202);
#160=LINE('',#1149,#203);
#161=LINE('',#1151,#204);
#162=LINE('',#1169,#205);
#163=LINE('',#1175,#206);
#164=LINE('',#1180,#207);
#165=LINE('',#1185,#208);
#166=LINE('',#1189,#209);
#167=LINE('',#1191,#210);
#168=LINE('',#1193,#211);
#169=LINE('',#1196,#212);
#170=LINE('',#1198,#213);
#171=LINE('',#1200,#214);
#172=LINE('',#1201,#215);
#173=LINE('',#1204,#216);
#174=LINE('',#1206,#217);
#175=LINE('',#1208,#218);
#176=LINE('',#1209,#219);
#177=LINE('',#1211,#220);
#178=LINE('',#1213,#221);
#179=LINE('',#1215,#222);
#180=VECTOR('',#656,1.45);
#181=VECTOR('',#661,1.45000000000001);
#182=VECTOR('',#666,1.45);
#183=VECTOR('',#671,1.45);
#184=VECTOR('',#676,1.45);
#185=VECTOR('',#681,1.45);
#186=VECTOR('',#698,10.);
#187=VECTOR('',#699,10.);
#188=VECTOR('',#708,10.);
#189=VECTOR('',#711,10.);
#190=VECTOR('',#714,10.);
#191=VECTOR('',#717,10.);
#192=VECTOR('',#720,20.);
#193=VECTOR('',#721,10.);
#194=VECTOR('',#722,10.);
#195=VECTOR('',#723,10.);
#196=VECTOR('',#724,10.);
#197=VECTOR('',#727,10.);
#198=VECTOR('',#732,10.);
#199=VECTOR('',#733,10.);
#200=VECTOR('',#734,10.);
#201=VECTOR('',#735,10.);
#202=VECTOR('',#736,10.);
#203=VECTOR('',#737,10.);
#204=VECTOR('',#738,10.);
#205=VECTOR('',#749,10.);
#206=VECTOR('',#758,10.);
#207=VECTOR('',#763,10.);
#208=VECTOR('',#770,10.);
#209=VECTOR('',#775,10.);
#210=VECTOR('',#778,10.);
#211=VECTOR('',#781,10.);
#212=VECTOR('',#784,10.);
#213=VECTOR('',#785,10.);
#214=VECTOR('',#786,10.);
#215=VECTOR('',#787,10.);
#216=VECTOR('',#790,10.);
#217=VECTOR('',#791,10.);
#218=VECTOR('',#792,10.);
#219=VECTOR('',#793,10.);
#220=VECTOR('',#796,10.);
#221=VECTOR('',#799,10.);
#222=VECTOR('',#802,10.);
#223=B_SPLINE_CURVE_WITH_KNOTS('',3,(#809,#810,#811,#812,#813,#814,#815,
#816,#817,#818,#819,#820,#821,#822,#823,#824,#825,#826,#827,#828,#829,#830,
#831,#832,#833,#834,#835,#836),.UNSPECIFIED.,.F.,.F.,(4,2,2,2,2,2,2,2,2,
2,2,2,2,4),(0.,0.029372104521762,0.058744209043524,0.117488418087048,0.216819680820291,
0.316150943553533,0.395210182909246,0.474269422264959,0.527404832108463,
0.580540241951967,0.633675651795471,0.686811061638976,0.765870300994688,
0.844929540350401),.UNSPECIFIED.);
#224=B_SPLINE_CURVE_WITH_KNOTS('',3,(#837,#838,#839,#840,#841,#842,#843,
#844,#845,#846,#847,#848),.UNSPECIFIED.,.F.,.F.,(4,2,2,2,2,4),(0.844929540350401,
0.944260803083643,1.04359206581689,1.10233627486041,1.13170837938217,1.16108048390393),
 .UNSPECIFIED.);
#225=B_SPLINE_CURVE_WITH_KNOTS('',3,(#855,#856,#857,#858,#859,#860,#861,
#862,#863,#864,#865,#866),.UNSPECIFIED.,.F.,.F.,(4,2,2,2,2,4),(0.,0.0276905231800578,
0.0553810463601157,0.110762092720231,0.203544208589134,0.296326324458036),
 .UNSPECIFIED.);
#226=B_SPLINE_CURVE_WITH_KNOTS('',3,(#867,#868,#869,#870,#871,#872,#873,
#874,#875,#876,#877,#878,#879,#880,#881,#882,#883,#884,#885,#886,#887,#888,
#889,#890,#891,#892,#893,#894),.UNSPECIFIED.,.F.,.F.,(4,2,2,2,2,2,2,2,2,
2,2,2,2,4),(0.296326324458036,0.379363226991726,0.462400129525415,0.515759453091971,
0.569118776658528,0.622478100225084,0.67583742379164,0.75887432632533,0.841911228859019,
0.934693344727922,1.02747546059682,1.08285650695694,1.110547030137,1.13823755331706),
 .UNSPECIFIED.);
#227=B_SPLINE_CURVE_WITH_KNOTS('',3,(#901,#902,#903,#904,#905,#906,#907,
#908,#909,#910,#911,#912,#913,#914,#915,#916,#917,#918,#919,#920,#921,#922,
#923,#924,#925,#926,#927,#928),.UNSPECIFIED.,.F.,.F.,(4,2,2,2,2,2,2,2,2,
2,2,2,2,4),(0.,0.0293721045217623,0.0587442090435245,0.117488418087049,
0.216819680820291,0.316150943553533,0.395210182909246,0.474269422264959,
0.527404832108463,0.580540241951967,0.633675651795471,0.686811061638976,
0.765870300994688,0.844929540350401),.UNSPECIFIED.);
#228=B_SPLINE_CURVE_WITH_KNOTS('',3,(#929,#930,#931,#932,#933,#934,#935,
#936,#937,#938,#939,#940),.UNSPECIFIED.,.F.,.F.,(4,2,2,2,2,4),(0.844929540350401,
0.944260803083643,1.04359206581689,1.10233627486041,1.13170837938217,1.16108048390393),
 .UNSPECIFIED.);
#229=B_SPLINE_CURVE_WITH_KNOTS('',3,(#947,#948,#949,#950,#951,#952,#953,
#954,#955,#956,#957,#958,#959,#960,#961,#962,#963,#964,#965,#966,#967,#968,
#969,#970,#971,#972,#973,#974),.UNSPECIFIED.,.F.,.F.,(4,2,2,2,2,2,2,2,2,
2,2,2,2,4),(0.,0.0293721045217621,0.0587442090435242,0.117488418087048,
0.216819680820291,0.316150943553534,0.395210182909247,0.47426942226496,
0.527404832108464,0.580540241951969,0.63898098940485,0.697421736857731,
0.771180993567016,0.844940250276301),.UNSPECIFIED.);
#230=B_SPLINE_CURVE_WITH_KNOTS('',3,(#975,#976,#977,#978,#979,#980,#981,
#982,#983,#984),.UNSPECIFIED.,.F.,.F.,(4,2,2,2,4),(0.844940250276301,1.01879834739482,
1.10531639442603,1.13029694422673,1.15527749402742),.UNSPECIFIED.);
#231=B_SPLINE_CURVE_WITH_KNOTS('',3,(#991,#992,#993,#994,#995,#996,#997,
#998,#999,#1000,#1001,#1002),.UNSPECIFIED.,.F.,.F.,(4,2,2,2,2,4),(0.,0.0276905231800578,
0.0553810463601155,0.110762092720231,0.203544208589132,0.296326324458032),
 .UNSPECIFIED.);
#232=B_SPLINE_CURVE_WITH_KNOTS('',3,(#1003,#1004,#1005,#1006,#1007,#1008,
#1009,#1010,#1011,#1012,#1013,#1014,#1015,#1016,#1017,#1018,#1019,#1020,
#1021,#1022,#1023,#1024,#1025,#1026,#1027,#1028,#1029,#1030),
 .UNSPECIFIED.,.F.,.F.,(4,2,2,2,2,2,2,2,2,2,2,2,2,4),(0.296326324458032,
0.379363226991722,0.462400129525412,0.515759453091967,0.569118776658522,
0.622478100225076,0.675837423791631,0.758874326325321,0.841911228859011,
0.934693344727911,1.02747546059681,1.08285650695693,1.11054703013699,1.13823755331704),
 .UNSPECIFIED.);
#233=B_SPLINE_CURVE_WITH_KNOTS('',3,(#1037,#1038,#1039,#1040,#1041,#1042,
#1043,#1044,#1045,#1046,#1047,#1048),.UNSPECIFIED.,.F.,.F.,(4,2,2,2,2,4),
(0.,0.0276905231800579,0.0553810463601157,0.110762092720231,0.203544208589132,
0.296326324458033),.UNSPECIFIED.);
#234=B_SPLINE_CURVE_WITH_KNOTS('',3,(#1049,#1050,#1051,#1052,#1053,#1054,
#1055,#1056,#1057,#1058,#1059,#1060,#1061,#1062,#1063,#1064,#1065,#1066,
#1067,#1068,#1069,#1070,#1071,#1072,#1073,#1074,#1075,#1076),
 .UNSPECIFIED.,.F.,.F.,(4,2,2,2,2,2,2,2,2,2,2,2,2,4),(0.296326324458033,
0.379363226991723,0.462400129525413,0.515759453091967,0.569118776658522,
0.622478100225077,0.675837423791632,0.758874326325322,0.841911228859012,
0.934693344727912,1.02747546059681,1.08285650695693,1.11054703013699,1.13823755331704),
 .UNSPECIFIED.);
#235=B_SPLINE_CURVE_WITH_KNOTS('',3,(#1098,#1099,#1100,#1101,#1102,#1103,
#1104,#1105,#1106,#1107),.UNSPECIFIED.,.F.,.F.,(4,2,2,2,4),(0.387052247972516,
0.423374264980431,0.456771721249173,0.487194536880239,0.51542119502056),
 .UNSPECIFIED.);
#236=B_SPLINE_CURVE_WITH_KNOTS('',3,(#1152,#1153,#1154,#1155,#1156,#1157,
#1158,#1159,#1160,#1161),.UNSPECIFIED.,.F.,.F.,(4,2,2,2,4),(0.515421195020557,
0.543647853160876,0.574070668791942,0.607468125060685,0.643790142068599),
 .UNSPECIFIED.);
#237=VERTEX_POINT('',#807);
#238=VERTEX_POINT('',#808);
#239=VERTEX_POINT('',#849);
#240=VERTEX_POINT('',#853);
#241=VERTEX_POINT('',#854);
#242=VERTEX_POINT('',#895);
#243=VERTEX_POINT('',#899);
#244=VERTEX_POINT('',#900);
#245=VERTEX_POINT('',#941);
#246=VERTEX_POINT('',#945);
#247=VERTEX_POINT('',#946);
#248=VERTEX_POINT('',#985);
#249=VERTEX_POINT('',#989);
#250=VERTEX_POINT('',#990);
#251=VERTEX_POINT('',#1031);
#252=VERTEX_POINT('',#1035);
#253=VERTEX_POINT('',#1036);
#254=VERTEX_POINT('',#1077);
#255=VERTEX_POINT('',#1081);
#256=VERTEX_POINT('',#1082);
#257=VERTEX_POINT('',#1084);
#258=VERTEX_POINT('',#1086);
#259=VERTEX_POINT('',#1090);
#260=VERTEX_POINT('',#1091);
#261=VERTEX_POINT('',#1096);
#262=VERTEX_POINT('',#1097);
#263=VERTEX_POINT('',#1111);
#264=VERTEX_POINT('',#1113);
#265=VERTEX_POINT('',#1115);
#266=VERTEX_POINT('',#1117);
#267=VERTEX_POINT('',#1119);
#268=VERTEX_POINT('',#1121);
#269=VERTEX_POINT('',#1125);
#270=VERTEX_POINT('',#1128);
#271=VERTEX_POINT('',#1130);
#272=VERTEX_POINT('',#1134);
#273=VERTEX_POINT('',#1138);
#274=VERTEX_POINT('',#1140);
#275=VERTEX_POINT('',#1142);
#276=VERTEX_POINT('',#1144);
#277=VERTEX_POINT('',#1146);
#278=VERTEX_POINT('',#1148);
#279=VERTEX_POINT('',#1150);
#280=VERTEX_POINT('',#1163);
#281=VERTEX_POINT('',#1167);
#282=VERTEX_POINT('',#1171);
#283=VERTEX_POINT('',#1177);
#284=VERTEX_POINT('',#1179);
#285=VERTEX_POINT('',#1183);
#286=VERTEX_POINT('',#1187);
#287=VERTEX_POINT('',#1195);
#288=VERTEX_POINT('',#1197);
#289=VERTEX_POINT('',#1199);
#290=VERTEX_POINT('',#1203);
#291=VERTEX_POINT('',#1205);
#292=VERTEX_POINT('',#1207);
#293=EDGE_CURVE('',#237,#238,#223,.T.);
#294=EDGE_CURVE('',#238,#237,#224,.T.);
#295=EDGE_CURVE('',#238,#239,#137,.T.);
#296=EDGE_CURVE('',#239,#239,#117,.T.);
#297=EDGE_CURVE('',#240,#241,#225,.T.);
#298=EDGE_CURVE('',#241,#240,#226,.T.);
#299=EDGE_CURVE('',#241,#242,#138,.T.);
#300=EDGE_CURVE('',#242,#242,#118,.T.);
#301=EDGE_CURVE('',#243,#244,#227,.T.);
#302=EDGE_CURVE('',#244,#243,#228,.T.);
#303=EDGE_CURVE('',#244,#245,#139,.T.);
#304=EDGE_CURVE('',#245,#245,#119,.T.);
#305=EDGE_CURVE('',#246,#247,#229,.T.);
#306=EDGE_CURVE('',#247,#246,#230,.T.);
#307=EDGE_CURVE('',#247,#248,#140,.T.);
#308=EDGE_CURVE('',#248,#248,#120,.T.);
#309=EDGE_CURVE('',#249,#250,#231,.T.);
#310=EDGE_CURVE('',#250,#249,#232,.T.);
#311=EDGE_CURVE('',#250,#251,#141,.T.);
#312=EDGE_CURVE('',#251,#251,#121,.T.);
#313=EDGE_CURVE('',#252,#253,#233,.T.);
#314=EDGE_CURVE('',#253,#252,#234,.T.);
#315=EDGE_CURVE('',#253,#254,#142,.T.);
#316=EDGE_CURVE('',#254,#254,#122,.T.);
#317=EDGE_CURVE('',#255,#256,#123,.T.);
#318=EDGE_CURVE('',#256,#257,#124,.T.);
#319=EDGE_CURVE('',#257,#258,#125,.T.);
#320=EDGE_CURVE('',#258,#255,#126,.T.);
#321=EDGE_CURVE('',#259,#260,#127,.T.);
#322=EDGE_CURVE('',#260,#258,#143,.T.);
#323=EDGE_CURVE('',#257,#259,#144,.T.);
#324=EDGE_CURVE('',#261,#262,#235,.T.);
#325=EDGE_CURVE('',#262,#260,#128,.T.);
#326=EDGE_CURVE('',#259,#261,#129,.T.);
#327=EDGE_CURVE('',#258,#263,#145,.T.);
#328=EDGE_CURVE('',#263,#264,#38,.T.);
#329=EDGE_CURVE('',#264,#265,#146,.T.);
#330=EDGE_CURVE('',#265,#266,#39,.T.);
#331=EDGE_CURVE('',#266,#267,#147,.T.);
#332=EDGE_CURVE('',#268,#267,#130,.T.);
#333=EDGE_CURVE('',#255,#268,#148,.T.);
#334=EDGE_CURVE('',#269,#260,#149,.T.);
#335=EDGE_CURVE('',#267,#269,#150,.T.);
#336=EDGE_CURVE('',#270,#266,#151,.T.);
#337=EDGE_CURVE('',#271,#270,#152,.T.);
#338=EDGE_CURVE('',#263,#271,#153,.T.);
#339=EDGE_CURVE('',#272,#262,#154,.T.);
#340=EDGE_CURVE('',#269,#272,#131,.T.);
#341=EDGE_CURVE('',#273,#261,#155,.T.);
#342=EDGE_CURVE('',#273,#274,#156,.T.);
#343=EDGE_CURVE('',#274,#275,#157,.T.);
#344=EDGE_CURVE('',#276,#275,#158,.T.);
#345=EDGE_CURVE('',#276,#277,#159,.T.);
#346=EDGE_CURVE('',#277,#278,#160,.T.);
#347=EDGE_CURVE('',#279,#278,#161,.T.);
#348=EDGE_CURVE('',#272,#279,#236,.T.);
#349=EDGE_CURVE('',#279,#280,#132,.T.);
#350=EDGE_CURVE('',#280,#269,#133,.T.);
#351=EDGE_CURVE('',#281,#267,#134,.T.);
#352=EDGE_CURVE('',#280,#281,#162,.T.);
#353=EDGE_CURVE('',#282,#268,#135,.T.);
#354=EDGE_CURVE('',#281,#282,#136,.T.);
#355=EDGE_CURVE('',#282,#278,#163,.T.);
#356=EDGE_CURVE('',#265,#283,#40,.T.);
#357=EDGE_CURVE('',#283,#284,#164,.F.);
#358=EDGE_CURVE('',#270,#284,#41,.T.);
#359=EDGE_CURVE('',#264,#285,#42,.T.);
#360=EDGE_CURVE('',#283,#285,#165,.F.);
#361=EDGE_CURVE('',#271,#286,#43,.T.);
#362=EDGE_CURVE('',#286,#285,#166,.F.);
#363=EDGE_CURVE('',#284,#286,#167,.T.);
#364=EDGE_CURVE('',#256,#273,#168,.T.);
#365=EDGE_CURVE('',#287,#276,#169,.T.);
#366=EDGE_CURVE('',#288,#287,#170,.F.);
#367=EDGE_CURVE('',#289,#288,#171,.T.);
#368=EDGE_CURVE('',#289,#277,#172,.T.);
#369=EDGE_CURVE('',#274,#290,#173,.T.);
#370=EDGE_CURVE('',#291,#290,#174,.T.);
#371=EDGE_CURVE('',#292,#291,#175,.F.);
#372=EDGE_CURVE('',#275,#292,#176,.T.);
#373=EDGE_CURVE('',#289,#290,#177,.F.);
#374=EDGE_CURVE('',#287,#292,#178,.T.);
#375=EDGE_CURVE('',#291,#288,#179,.T.);
#376=ORIENTED_EDGE('',*,*,#293,.F.);
#377=ORIENTED_EDGE('',*,*,#294,.F.);
#378=ORIENTED_EDGE('',*,*,#295,.T.);
#379=ORIENTED_EDGE('',*,*,#296,.F.);
#380=ORIENTED_EDGE('',*,*,#295,.F.);
#381=ORIENTED_EDGE('',*,*,#297,.F.);
#382=ORIENTED_EDGE('',*,*,#298,.F.);
#383=ORIENTED_EDGE('',*,*,#299,.T.);
#384=ORIENTED_EDGE('',*,*,#300,.F.);
#385=ORIENTED_EDGE('',*,*,#299,.F.);
#386=ORIENTED_EDGE('',*,*,#301,.F.);
#387=ORIENTED_EDGE('',*,*,#302,.F.);
#388=ORIENTED_EDGE('',*,*,#303,.T.);
#389=ORIENTED_EDGE('',*,*,#304,.F.);
#390=ORIENTED_EDGE('',*,*,#303,.F.);
#391=ORIENTED_EDGE('',*,*,#305,.F.);
#392=ORIENTED_EDGE('',*,*,#306,.F.);
#393=ORIENTED_EDGE('',*,*,#307,.T.);
#394=ORIENTED_EDGE('',*,*,#308,.F.);
#395=ORIENTED_EDGE('',*,*,#307,.F.);
#396=ORIENTED_EDGE('',*,*,#309,.F.);
#397=ORIENTED_EDGE('',*,*,#310,.F.);
#398=ORIENTED_EDGE('',*,*,#311,.T.);
#399=ORIENTED_EDGE('',*,*,#312,.F.);
#400=ORIENTED_EDGE('',*,*,#311,.F.);
#401=ORIENTED_EDGE('',*,*,#313,.F.);
#402=ORIENTED_EDGE('',*,*,#314,.F.);
#403=ORIENTED_EDGE('',*,*,#315,.T.);
#404=ORIENTED_EDGE('',*,*,#316,.F.);
#405=ORIENTED_EDGE('',*,*,#315,.F.);
#406=ORIENTED_EDGE('',*,*,#317,.T.);
#407=ORIENTED_EDGE('',*,*,#318,.T.);
#408=ORIENTED_EDGE('',*,*,#319,.T.);
#409=ORIENTED_EDGE('',*,*,#320,.T.);
#410=ORIENTED_EDGE('',*,*,#321,.T.);
#411=ORIENTED_EDGE('',*,*,#322,.T.);
#412=ORIENTED_EDGE('',*,*,#319,.F.);
#413=ORIENTED_EDGE('',*,*,#323,.T.);
#414=ORIENTED_EDGE('',*,*,#324,.T.);
#415=ORIENTED_EDGE('',*,*,#325,.T.);
#416=ORIENTED_EDGE('',*,*,#321,.F.);
#417=ORIENTED_EDGE('',*,*,#326,.T.);
#418=ORIENTED_EDGE('',*,*,#320,.F.);
#419=ORIENTED_EDGE('',*,*,#327,.T.);
#420=ORIENTED_EDGE('',*,*,#328,.T.);
#421=ORIENTED_EDGE('',*,*,#329,.T.);
#422=ORIENTED_EDGE('',*,*,#330,.T.);
#423=ORIENTED_EDGE('',*,*,#331,.T.);
#424=ORIENTED_EDGE('',*,*,#332,.F.);
#425=ORIENTED_EDGE('',*,*,#333,.F.);
#426=ORIENTED_EDGE('',*,*,#293,.T.);
#427=ORIENTED_EDGE('',*,*,#294,.T.);
#428=ORIENTED_EDGE('',*,*,#301,.T.);
#429=ORIENTED_EDGE('',*,*,#302,.T.);
#430=ORIENTED_EDGE('',*,*,#305,.T.);
#431=ORIENTED_EDGE('',*,*,#306,.T.);
#432=ORIENTED_EDGE('',*,*,#322,.F.);
#433=ORIENTED_EDGE('',*,*,#334,.F.);
#434=ORIENTED_EDGE('',*,*,#335,.F.);
#435=ORIENTED_EDGE('',*,*,#331,.F.);
#436=ORIENTED_EDGE('',*,*,#336,.F.);
#437=ORIENTED_EDGE('',*,*,#337,.F.);
#438=ORIENTED_EDGE('',*,*,#338,.F.);
#439=ORIENTED_EDGE('',*,*,#327,.F.);
#440=ORIENTED_EDGE('',*,*,#325,.F.);
#441=ORIENTED_EDGE('',*,*,#339,.F.);
#442=ORIENTED_EDGE('',*,*,#340,.F.);
#443=ORIENTED_EDGE('',*,*,#334,.T.);
#444=ORIENTED_EDGE('',*,*,#297,.T.);
#445=ORIENTED_EDGE('',*,*,#298,.T.);
#446=ORIENTED_EDGE('',*,*,#309,.T.);
#447=ORIENTED_EDGE('',*,*,#310,.T.);
#448=ORIENTED_EDGE('',*,*,#313,.T.);
#449=ORIENTED_EDGE('',*,*,#314,.T.);
#450=ORIENTED_EDGE('',*,*,#324,.F.);
#451=ORIENTED_EDGE('',*,*,#341,.F.);
#452=ORIENTED_EDGE('',*,*,#342,.T.);
#453=ORIENTED_EDGE('',*,*,#343,.T.);
#454=ORIENTED_EDGE('',*,*,#344,.F.);
#455=ORIENTED_EDGE('',*,*,#345,.T.);
#456=ORIENTED_EDGE('',*,*,#346,.T.);
#457=ORIENTED_EDGE('',*,*,#347,.F.);
#458=ORIENTED_EDGE('',*,*,#348,.F.);
#459=ORIENTED_EDGE('',*,*,#339,.T.);
#460=ORIENTED_EDGE('',*,*,#300,.T.);
#461=ORIENTED_EDGE('',*,*,#312,.T.);
#462=ORIENTED_EDGE('',*,*,#316,.T.);
#463=ORIENTED_EDGE('',*,*,#348,.T.);
#464=ORIENTED_EDGE('',*,*,#349,.T.);
#465=ORIENTED_EDGE('',*,*,#350,.T.);
#466=ORIENTED_EDGE('',*,*,#340,.T.);
#467=ORIENTED_EDGE('',*,*,#351,.T.);
#468=ORIENTED_EDGE('',*,*,#335,.T.);
#469=ORIENTED_EDGE('',*,*,#350,.F.);
#470=ORIENTED_EDGE('',*,*,#352,.T.);
#471=ORIENTED_EDGE('',*,*,#353,.T.);
#472=ORIENTED_EDGE('',*,*,#332,.T.);
#473=ORIENTED_EDGE('',*,*,#351,.F.);
#474=ORIENTED_EDGE('',*,*,#354,.T.);
#475=ORIENTED_EDGE('',*,*,#355,.F.);
#476=ORIENTED_EDGE('',*,*,#354,.F.);
#477=ORIENTED_EDGE('',*,*,#352,.F.);
#478=ORIENTED_EDGE('',*,*,#349,.F.);
#479=ORIENTED_EDGE('',*,*,#347,.T.);
#480=ORIENTED_EDGE('',*,*,#330,.F.);
#481=ORIENTED_EDGE('',*,*,#356,.T.);
#482=ORIENTED_EDGE('',*,*,#357,.T.);
#483=ORIENTED_EDGE('',*,*,#358,.F.);
#484=ORIENTED_EDGE('',*,*,#336,.T.);
#485=ORIENTED_EDGE('',*,*,#329,.F.);
#486=ORIENTED_EDGE('',*,*,#359,.T.);
#487=ORIENTED_EDGE('',*,*,#360,.F.);
#488=ORIENTED_EDGE('',*,*,#356,.F.);
#489=ORIENTED_EDGE('',*,*,#328,.F.);
#490=ORIENTED_EDGE('',*,*,#338,.T.);
#491=ORIENTED_EDGE('',*,*,#361,.T.);
#492=ORIENTED_EDGE('',*,*,#362,.T.);
#493=ORIENTED_EDGE('',*,*,#359,.F.);
#494=ORIENTED_EDGE('',*,*,#363,.T.);
#495=ORIENTED_EDGE('',*,*,#361,.F.);
#496=ORIENTED_EDGE('',*,*,#337,.T.);
#497=ORIENTED_EDGE('',*,*,#358,.T.);
#498=ORIENTED_EDGE('',*,*,#341,.T.);
#499=ORIENTED_EDGE('',*,*,#326,.F.);
#500=ORIENTED_EDGE('',*,*,#323,.F.);
#501=ORIENTED_EDGE('',*,*,#318,.F.);
#502=ORIENTED_EDGE('',*,*,#364,.T.);
#503=ORIENTED_EDGE('',*,*,#345,.F.);
#504=ORIENTED_EDGE('',*,*,#365,.F.);
#505=ORIENTED_EDGE('',*,*,#366,.F.);
#506=ORIENTED_EDGE('',*,*,#367,.F.);
#507=ORIENTED_EDGE('',*,*,#368,.T.);
#508=ORIENTED_EDGE('',*,*,#369,.T.);
#509=ORIENTED_EDGE('',*,*,#370,.F.);
#510=ORIENTED_EDGE('',*,*,#371,.F.);
#511=ORIENTED_EDGE('',*,*,#372,.F.);
#512=ORIENTED_EDGE('',*,*,#343,.F.);
#513=ORIENTED_EDGE('',*,*,#317,.F.);
#514=ORIENTED_EDGE('',*,*,#333,.T.);
#515=ORIENTED_EDGE('',*,*,#353,.F.);
#516=ORIENTED_EDGE('',*,*,#355,.T.);
#517=ORIENTED_EDGE('',*,*,#346,.F.);
#518=ORIENTED_EDGE('',*,*,#368,.F.);
#519=ORIENTED_EDGE('',*,*,#373,.T.);
#520=ORIENTED_EDGE('',*,*,#369,.F.);
#521=ORIENTED_EDGE('',*,*,#342,.F.);
#522=ORIENTED_EDGE('',*,*,#364,.F.);
#523=ORIENTED_EDGE('',*,*,#296,.T.);
#524=ORIENTED_EDGE('',*,*,#304,.T.);
#525=ORIENTED_EDGE('',*,*,#308,.T.);
#526=ORIENTED_EDGE('',*,*,#365,.T.);
#527=ORIENTED_EDGE('',*,*,#344,.T.);
#528=ORIENTED_EDGE('',*,*,#372,.T.);
#529=ORIENTED_EDGE('',*,*,#374,.F.);
#530=ORIENTED_EDGE('',*,*,#366,.T.);
#531=ORIENTED_EDGE('',*,*,#374,.T.);
#532=ORIENTED_EDGE('',*,*,#371,.T.);
#533=ORIENTED_EDGE('',*,*,#375,.T.);
#534=ORIENTED_EDGE('',*,*,#362,.F.);
#535=ORIENTED_EDGE('',*,*,#363,.F.);
#536=ORIENTED_EDGE('',*,*,#357,.F.);
#537=ORIENTED_EDGE('',*,*,#360,.T.);
#538=ORIENTED_EDGE('',*,*,#370,.T.);
#539=ORIENTED_EDGE('',*,*,#373,.F.);
#540=ORIENTED_EDGE('',*,*,#367,.T.);
#541=ORIENTED_EDGE('',*,*,#375,.F.);
#542=CYLINDRICAL_SURFACE('',#598,1.45);
#543=CYLINDRICAL_SURFACE('',#600,1.45000000000001);
#544=CYLINDRICAL_SURFACE('',#602,1.45);
#545=CYLINDRICAL_SURFACE('',#604,1.45);
#546=CYLINDRICAL_SURFACE('',#606,1.45);
#547=CYLINDRICAL_SURFACE('',#608,1.45);
#548=CYLINDRICAL_SURFACE('',#615,0.8);
#549=CYLINDRICAL_SURFACE('',#620,10.);
#550=CYLINDRICAL_SURFACE('',#625,20.);
#551=CYLINDRICAL_SURFACE('',#631,0.8);
#552=CYLINDRICAL_SURFACE('',#637,10.);
#553=CYLINDRICAL_SURFACE('',#640,10.);
#554=CYLINDRICAL_SURFACE('',#642,10.);
#555=CYLINDRICAL_SURFACE('',#644,10.);
#556=ADVANCED_FACE('',(#48),#542,.F.);
#557=ADVANCED_FACE('',(#49),#543,.F.);
#558=ADVANCED_FACE('',(#50),#544,.F.);
#559=ADVANCED_FACE('',(#51),#545,.F.);
#560=ADVANCED_FACE('',(#52),#546,.F.);
#561=ADVANCED_FACE('',(#53),#547,.F.);
#562=ADVANCED_FACE('',(#54),#44,.T.);
#563=ADVANCED_FACE('',(#55),#548,.T.);
#564=ADVANCED_FACE('',(#56),#45,.T.);
#565=ADVANCED_FACE('',(#57,#25,#26,#27),#549,.T.);
#566=ADVANCED_FACE('',(#58),#15,.T.);
#567=ADVANCED_FACE('',(#59,#28,#29,#30),#550,.T.);
#568=ADVANCED_FACE('',(#60,#31,#32,#33),#16,.T.);
#569=ADVANCED_FACE('',(#61),#46,.T.);
#570=ADVANCED_FACE('',(#62),#551,.T.);
#571=ADVANCED_FACE('',(#63),#47,.T.);
#572=ADVANCED_FACE('',(#64),#17,.T.);
#573=ADVANCED_FACE('',(#65),#552,.T.);
#574=ADVANCED_FACE('',(#66),#553,.T.);
#575=ADVANCED_FACE('',(#67),#554,.T.);
#576=ADVANCED_FACE('',(#68),#555,.T.);
#577=ADVANCED_FACE('',(#69),#18,.T.);
#578=ADVANCED_FACE('',(#70),#19,.T.);
#579=ADVANCED_FACE('',(#71),#20,.T.);
#580=ADVANCED_FACE('',(#72,#34,#35,#36),#21,.T.);
#581=ADVANCED_FACE('',(#73),#22,.T.);
#582=ADVANCED_FACE('',(#74,#37),#23,.T.);
#583=ADVANCED_FACE('',(#75),#24,.T.);
#584=CLOSED_SHELL('',(#556,#557,#558,#559,#560,#561,#562,#563,#564,#565,
#566,#567,#568,#569,#570,#571,#572,#573,#574,#575,#576,#577,#578,#579,#580,
#581,#582,#583));
#585=DERIVED_UNIT_ELEMENT(#587,1.);
#586=DERIVED_UNIT_ELEMENT(#1222,-3.);
#587=(
MASS_UNIT()
NAMED_UNIT(*)
SI_UNIT(.KILO.,.GRAM.)
);
#588=DERIVED_UNIT((#585,#586));
#589=MEASURE_REPRESENTATION_ITEM('density measure',
POSITIVE_RATIO_MEASURE(7850.),#588);
#590=PROPERTY_DEFINITION_REPRESENTATION(#595,#592);
#591=PROPERTY_DEFINITION_REPRESENTATION(#596,#593);
#592=REPRESENTATION('material name',(#594),#1219);
#593=REPRESENTATION('density',(#589),#1219);
#594=DESCRIPTIVE_REPRESENTATION_ITEM('Steel','Steel');
#595=PROPERTY_DEFINITION('material property','material name',#1229);
#596=PROPERTY_DEFINITION('material property','density of part',#1229);
#597=AXIS2_PLACEMENT_3D('',#805,#652,#653);
#598=AXIS2_PLACEMENT_3D('',#806,#654,#655);
#599=AXIS2_PLACEMENT_3D('',#851,#657,#658);
#600=AXIS2_PLACEMENT_3D('',#852,#659,#660);
#601=AXIS2_PLACEMENT_3D('',#897,#662,#663);
#602=AXIS2_PLACEMENT_3D('',#898,#664,#665);
#603=AXIS2_PLACEMENT_3D('',#943,#667,#668);
#604=AXIS2_PLACEMENT_3D('',#944,#669,#670);
#605=AXIS2_PLACEMENT_3D('',#987,#672,#673);
#606=AXIS2_PLACEMENT_3D('',#988,#674,#675);
#607=AXIS2_PLACEMENT_3D('',#1033,#677,#678);
#608=AXIS2_PLACEMENT_3D('',#1034,#679,#680);
#609=AXIS2_PLACEMENT_3D('',#1079,#682,#683);
#610=AXIS2_PLACEMENT_3D('',#1080,#684,#685);
#611=AXIS2_PLACEMENT_3D('',#1083,#686,#687);
#612=AXIS2_PLACEMENT_3D('',#1085,#688,#689);
#613=AXIS2_PLACEMENT_3D('',#1087,#690,#691);
#614=AXIS2_PLACEMENT_3D('',#1088,#692,#693);
#615=AXIS2_PLACEMENT_3D('',#1089,#694,#695);
#616=AXIS2_PLACEMENT_3D('',#1092,#696,#697);
#617=AXIS2_PLACEMENT_3D('',#1095,#700,#701);
#618=AXIS2_PLACEMENT_3D('',#1108,#702,#703);
#619=AXIS2_PLACEMENT_3D('',#1109,#704,#705);
#620=AXIS2_PLACEMENT_3D('',#1110,#706,#707);
#621=AXIS2_PLACEMENT_3D('',#1114,#709,#710);
#622=AXIS2_PLACEMENT_3D('',#1118,#712,#713);
#623=AXIS2_PLACEMENT_3D('',#1122,#715,#716);
#624=AXIS2_PLACEMENT_3D('',#1124,#718,#719);
#625=AXIS2_PLACEMENT_3D('',#1133,#725,#726);
#626=AXIS2_PLACEMENT_3D('',#1136,#728,#729);
#627=AXIS2_PLACEMENT_3D('',#1137,#730,#731);
#628=AXIS2_PLACEMENT_3D('',#1162,#739,#740);
#629=AXIS2_PLACEMENT_3D('',#1164,#741,#742);
#630=AXIS2_PLACEMENT_3D('',#1165,#743,#744);
#631=AXIS2_PLACEMENT_3D('',#1166,#745,#746);
#632=AXIS2_PLACEMENT_3D('',#1168,#747,#748);
#633=AXIS2_PLACEMENT_3D('',#1170,#750,#751);
#634=AXIS2_PLACEMENT_3D('',#1172,#752,#753);
#635=AXIS2_PLACEMENT_3D('',#1173,#754,#755);
#636=AXIS2_PLACEMENT_3D('',#1174,#756,#757);
#637=AXIS2_PLACEMENT_3D('',#1176,#759,#760);
#638=AXIS2_PLACEMENT_3D('',#1178,#761,#762);
#639=AXIS2_PLACEMENT_3D('',#1181,#764,#765);
#640=AXIS2_PLACEMENT_3D('',#1182,#766,#767);
#641=AXIS2_PLACEMENT_3D('',#1184,#768,#769);
#642=AXIS2_PLACEMENT_3D('',#1186,#771,#772);
#643=AXIS2_PLACEMENT_3D('',#1188,#773,#774);
#644=AXIS2_PLACEMENT_3D('',#1190,#776,#777);
#645=AXIS2_PLACEMENT_3D('',#1192,#779,#780);
#646=AXIS2_PLACEMENT_3D('',#1194,#782,#783);
#647=AXIS2_PLACEMENT_3D('',#1202,#788,#789);
#648=AXIS2_PLACEMENT_3D('',#1210,#794,#795);
#649=AXIS2_PLACEMENT_3D('',#1212,#797,#798);
#650=AXIS2_PLACEMENT_3D('',#1214,#800,#801);
#651=AXIS2_PLACEMENT_3D('',#1216,#803,#804);
#652=DIRECTION('axis',(0.,0.,1.));
#653=DIRECTION('refdir',(1.,0.,0.));
#654=DIRECTION('center_axis',(0.,0.,-1.));
#655=DIRECTION('ref_axis',(-1.,4.16333634234434E-17,0.));
#656=DIRECTION('',(0.,0.,-1.));
#657=DIRECTION('center_axis',(0.,0.,1.));
#658=DIRECTION('ref_axis',(-1.,4.16333634234434E-17,0.));
#659=DIRECTION('center_axis',(0.,0.,-1.));
#660=DIRECTION('ref_axis',(-1.,4.16333634234434E-17,0.));
#661=DIRECTION('',(0.,0.,-1.));
#662=DIRECTION('center_axis',(5.93472984109988E-67,-1.99840144432528E-15,
1.));
#663=DIRECTION('ref_axis',(-1.,4.16333634234434E-17,0.));
#664=DIRECTION('center_axis',(0.,0.,-1.));
#665=DIRECTION('ref_axis',(-1.,4.16333634234434E-17,0.));
#666=DIRECTION('',(0.,0.,-1.));
#667=DIRECTION('center_axis',(0.,0.,1.));
#668=DIRECTION('ref_axis',(-1.,4.16333634234434E-17,0.));
#669=DIRECTION('center_axis',(0.,0.,-1.));
#670=DIRECTION('ref_axis',(-1.,4.16333634234434E-17,0.));
#671=DIRECTION('',(0.,0.,-1.));
#672=DIRECTION('center_axis',(0.,0.,1.));
#673=DIRECTION('ref_axis',(-1.,4.16333634234434E-17,0.));
#674=DIRECTION('center_axis',(0.,0.,-1.));
#675=DIRECTION('ref_axis',(-1.,4.16333634234434E-17,0.));
#676=DIRECTION('',(0.,0.,-1.));
#677=DIRECTION('center_axis',(5.93472984109988E-67,-1.99840144432528E-15,
1.));
#678=DIRECTION('ref_axis',(-1.,4.16333634234434E-17,0.));
#679=DIRECTION('center_axis',(0.,0.,-1.));
#680=DIRECTION('ref_axis',(-1.,4.16333634234434E-17,0.));
#681=DIRECTION('',(0.,0.,-1.));
#682=DIRECTION('center_axis',(5.93472984109988E-67,-1.99840144432528E-15,
1.));
#683=DIRECTION('ref_axis',(-1.,4.16333634234434E-17,0.));
#684=DIRECTION('center_axis',(-1.,1.22464679914735E-16,5.93472984109987E-67));
#685=DIRECTION('ref_axis',(0.,0.,1.));
#686=DIRECTION('center_axis',(0.,0.,1.));
#687=DIRECTION('ref_axis',(-1.22464679914735E-16,-1.,0.));
#688=DIRECTION('center_axis',(-1.,1.22464679914735E-16,5.93472984109987E-67));
#689=DIRECTION('ref_axis',(-8.65956062063013E-17,-0.707106785945078,0.707106776428017));
#690=DIRECTION('center_axis',(0.,-1.,-5.55111512312578E-15));
#691=DIRECTION('ref_axis',(1.,0.,0.));
#692=DIRECTION('center_axis',(1.,-1.22464679914735E-16,-5.93472984109987E-67));
#693=DIRECTION('ref_axis',(-8.32667268468867E-17,-0.707106785945078,0.707106776428017));
#694=DIRECTION('center_axis',(-1.22464679914735E-16,-1.,-2.42629722226648E-15));
#695=DIRECTION('ref_axis',(0.707106781186548,0.,0.707106781186548));
#696=DIRECTION('center_axis',(0.,-1.,0.));
#697=DIRECTION('ref_axis',(1.,0.,0.));
#698=DIRECTION('',(-1.22464679914735E-16,-1.,-2.42629722226648E-15));
#699=DIRECTION('',(1.22464679914735E-16,1.,2.42629722226648E-15));
#700=DIRECTION('center_axis',(-1.,1.22464679914735E-16,5.93472984109987E-67));
#701=DIRECTION('ref_axis',(0.,0.,1.));
#702=DIRECTION('center_axis',(1.,-1.22464679914735E-16,-5.93472984109987E-67));
#703=DIRECTION('ref_axis',(6.2450045135165E-17,0.499996059135293,0.866027679031783));
#704=DIRECTION('center_axis',(-1.,1.22464679914735E-16,5.93472984109987E-67));
#705=DIRECTION('ref_axis',(6.12318573406328E-17,0.499996059135293,0.866027679031783));
#706=DIRECTION('center_axis',(-1.,0.,5.93472984109988E-67));
#707=DIRECTION('ref_axis',(0.,-0.707106781186548,0.707106781186547));
#708=DIRECTION('',(-1.,0.,5.93472984109988E-67));
#709=DIRECTION('center_axis',(0.707106781186548,-0.707106781186548,-1.57009245868378E-15));
#710=DIRECTION('ref_axis',(-0.707106781186548,-0.707106781186547,-1.60934477015087E-15));
#711=DIRECTION('',(-1.,0.,5.93472984109988E-67));
#712=DIRECTION('center_axis',(-0.707106781186548,-0.707106781186548,-1.57009245868378E-15));
#713=DIRECTION('ref_axis',(0.707106781186548,-0.707106781186547,-1.60934477015087E-15));
#714=DIRECTION('',(-1.,0.,5.93472984109988E-67));
#715=DIRECTION('center_axis',(-1.,-1.48368246027497E-67,5.93472984109987E-67));
#716=DIRECTION('ref_axis',(0.,-0.707106785945078,0.707106776428017));
#717=DIRECTION('',(-1.,0.,0.));
#718=DIRECTION('center_axis',(5.93472984109988E-67,-2.42629722226648E-15,
1.));
#719=DIRECTION('ref_axis',(-1.48368246027495E-67,1.,2.42629722226648E-15));
#720=DIRECTION('',(1.,1.43994185283626E-81,-5.93472984109988E-67));
#721=DIRECTION('',(-1.48368246027495E-67,1.,2.42629722226648E-15));
#722=DIRECTION('',(1.48368246027495E-67,-1.,-2.42629722226648E-15));
#723=DIRECTION('',(-1.,-1.48368246027497E-67,5.93472984109987E-67));
#724=DIRECTION('',(1.22464679914735E-16,1.,2.42629722226648E-15));
#725=DIRECTION('center_axis',(1.,1.43994185283626E-81,-5.93472984109988E-67));
#726=DIRECTION('ref_axis',(0.,0.866020853235954,0.500007881698349));
#727=DIRECTION('',(1.,0.,0.));
#728=DIRECTION('center_axis',(-1.,-1.48368246027497E-67,5.93472984109987E-67));
#729=DIRECTION('ref_axis',(0.,0.499996059135294,0.866027679031782));
#730=DIRECTION('center_axis',(-5.93472984109988E-67,1.99840144432528E-15,
-1.));
#731=DIRECTION('ref_axis',(1.48368246027496E-67,-1.,-1.99840144432528E-15));
#732=DIRECTION('',(-1.48368246027496E-67,1.,1.99840144432528E-15));
#733=DIRECTION('',(-1.,1.22464679914735E-16,2.4473359322044E-31));
#734=DIRECTION('',(-1.22464679914735E-16,-1.,-1.99840144432528E-15));
#735=DIRECTION('',(1.,0.,0.));
#736=DIRECTION('',(-1.48368246027496E-67,1.,1.99840144432528E-15));
#737=DIRECTION('',(-1.,-1.48368246027497E-67,5.93472984109987E-67));
#738=DIRECTION('',(1.48368246027496E-67,-1.,-1.99840144432528E-15));
#739=DIRECTION('center_axis',(1.,1.48368246027497E-67,-5.93472984109987E-67));
#740=DIRECTION('ref_axis',(0.,0.,-1.));
#741=DIRECTION('center_axis',(1.,1.48368246027497E-67,-5.93472984109987E-67));
#742=DIRECTION('ref_axis',(4.39780492682274E-67,0.499996059135294,0.866027679031782));
#743=DIRECTION('center_axis',(0.,1.,2.22044604925035E-14));
#744=DIRECTION('ref_axis',(-1.,0.,0.));
#745=DIRECTION('center_axis',(-1.48368246027495E-67,1.,2.42629722226648E-15));
#746=DIRECTION('ref_axis',(-0.70710678118654,0.,0.707106781186555));
#747=DIRECTION('center_axis',(0.,1.,-5.55111512312579E-15));
#748=DIRECTION('ref_axis',(-1.,0.,0.));
#749=DIRECTION('',(1.48368246027495E-67,-1.,-2.42629722226648E-15));
#750=DIRECTION('center_axis',(1.,1.48368246027497E-67,-5.93472984109987E-67));
#751=DIRECTION('ref_axis',(0.,0.,-1.));
#752=DIRECTION('center_axis',(0.,0.,1.));
#753=DIRECTION('ref_axis',(1.48368246027497E-67,-1.,0.));
#754=DIRECTION('center_axis',(1.,1.48368246027497E-67,-5.93472984109987E-67));
#755=DIRECTION('ref_axis',(5.24560962275941E-67,-0.707106785945078,0.707106776428017));
#756=DIRECTION('center_axis',(-1.,-1.48368246027497E-67,5.93472984109987E-67));
#757=DIRECTION('ref_axis',(5.93472984109987E-67,-9.92502951301809E-119,
1.));
#758=DIRECTION('',(-1.48368246027497E-67,1.,9.9250295130181E-119));
#759=DIRECTION('center_axis',(1.48368246027495E-67,-1.,-2.42629722226648E-15));
#760=DIRECTION('ref_axis',(0.918681126273906,-8.88178419700125E-16,0.394999985098871));
#761=DIRECTION('center_axis',(-0.707106780446835,0.707106781926261,1.72710170635889E-15));
#762=DIRECTION('ref_axis',(0.707106781926261,0.707106780446835,1.70420073169458E-15));
#763=DIRECTION('',(1.48368246027497E-67,-1.,-9.9250295130181E-119));
#764=DIRECTION('center_axis',(0.707106780446839,0.707106781926256,1.25607396826101E-15));
#765=DIRECTION('ref_axis',(0.707106781926256,-0.707106780446839,-1.25607396563303E-15));
#766=DIRECTION('center_axis',(1.,1.43994185283626E-81,-5.93472984109988E-67));
#767=DIRECTION('ref_axis',(0.,0.918681124351815,0.394999989569221));
#768=DIRECTION('center_axis',(-0.707106780446827,-0.707106781926268,-2.8261664259593E-15));
#769=DIRECTION('ref_axis',(-0.707106781926268,0.707106780446827,2.82616642004626E-15));
#770=DIRECTION('',(-1.,0.,0.));
#771=DIRECTION('center_axis',(1.22464679914735E-16,1.,2.42629722226648E-15));
#772=DIRECTION('ref_axis',(-0.91868112627392,0.,0.394999985098838));
#773=DIRECTION('center_axis',(0.707106780446831,-0.707106781926264,-1.57009245966928E-15));
#774=DIRECTION('ref_axis',(-0.707106781926264,-0.707106780446831,-1.8612099787127E-15));
#775=DIRECTION('',(1.22464679914735E-16,1.,-7.26794790370724E-83));
#776=DIRECTION('center_axis',(-1.,-1.48368246027497E-67,5.93472984109987E-67));
#777=DIRECTION('ref_axis',(0.,-0.918681124351828,0.394999989569192));
#778=DIRECTION('',(1.,1.48368246027497E-67,-5.93472984109987E-67));
#779=DIRECTION('center_axis',(1.,-1.22464679914735E-16,-5.93472984109987E-67));
#780=DIRECTION('ref_axis',(5.93472984109987E-67,-9.92502951301809E-119,
1.));
#781=DIRECTION('',(0.,1.,0.));
#782=DIRECTION('center_axis',(1.,1.48368246027497E-67,-5.93472984109987E-67));
#783=DIRECTION('ref_axis',(-5.93472984109987E-67,-4.13162991671582E-82,
-1.));
#784=DIRECTION('',(-5.93472984109987E-67,9.92502951301809E-119,-1.));
#785=DIRECTION('',(1.48368246027497E-67,-1.,-9.9250295130181E-119));
#786=DIRECTION('',(5.93472984109987E-67,0.,1.));
#787=DIRECTION('',(-1.48368246027497E-67,1.,9.9250295130181E-119));
#788=DIRECTION('center_axis',(-1.,1.22464679914735E-16,5.93472984109987E-67));
#789=DIRECTION('ref_axis',(-5.93472984109987E-67,4.13162991671582E-82,-1.));
#790=DIRECTION('',(-1.22464679914735E-16,-1.,7.26794790370724E-83));
#791=DIRECTION('',(-5.93472984109987E-67,0.,-1.));
#792=DIRECTION('',(1.22464679914735E-16,1.,-7.26794790370724E-83));
#793=DIRECTION('',(5.93472984109987E-67,-9.92502951301809E-119,1.));
#794=DIRECTION('center_axis',(0.,0.,-1.));
#795=DIRECTION('ref_axis',(0.,1.,0.));
#796=DIRECTION('',(-1.,0.,0.));
#797=DIRECTION('center_axis',(1.48368246027497E-67,-1.,-9.9250295130181E-119));
#798=DIRECTION('ref_axis',(-6.97972398698744E-52,-2.02807235700718E-118,
1.));
#799=DIRECTION('',(1.,0.,0.));
#800=DIRECTION('center_axis',(0.,0.,-1.));
#801=DIRECTION('ref_axis',(-3.56561989965295E-52,1.,0.));
#802=DIRECTION('',(-1.,0.,0.));
#803=DIRECTION('center_axis',(0.,1.,0.));
#804=DIRECTION('ref_axis',(6.65582375893529E-52,0.,1.));
#805=CARTESIAN_POINT('',(0.,0.,0.));
#806=CARTESIAN_POINT('Origin',(-120.956727007679,13.5151060388008,8.25000013411039));
#807=CARTESIAN_POINT('',(-120.956727007679,12.0651060388008,2.49749643645626));
#808=CARTESIAN_POINT('',(-119.506727007679,13.5151060388008,4.74559400630712));
#809=CARTESIAN_POINT('Ctrl Pts',(-120.956727007679,12.0651060388008,2.49749643645626));
#810=CARTESIAN_POINT('Ctrl Pts',(-121.054634022751,12.0651060388008,2.49749643645626));
#811=CARTESIAN_POINT('Ctrl Pts',(-121.146615905708,12.074883824933,2.5184505609781));
#812=CARTESIAN_POINT('Ctrl Pts',(-121.31975638157,12.1085262858426,2.58901739996071));
#813=CARTESIAN_POINT('Ctrl Pts',(-121.400904279543,12.1324391219232,2.63863338578621));
#814=CARTESIAN_POINT('Ctrl Pts',(-121.627757181741,12.2195508932902,2.81408135717496));
#815=CARTESIAN_POINT('Ctrl Pts',(-121.756456219924,12.2985634866402,2.96610535359455));
#816=CARTESIAN_POINT('Ctrl Pts',(-122.031514311471,12.5170779184959,3.35883594853938));
#817=CARTESIAN_POINT('Ctrl Pts',(-122.168873272368,12.6902713190955,3.64337773515818));
#818=CARTESIAN_POINT('Ctrl Pts',(-122.357322771666,13.0815373686541,4.21075259312773));
#819=CARTESIAN_POINT('Ctrl Pts',(-122.406727007679,13.3000341916249,4.49385188062441));
#820=CARTESIAN_POINT('Ctrl Pts',(-122.406727007679,13.6862849423673,4.94595933362319));
#821=CARTESIAN_POINT('Ctrl Pts',(-122.374940832013,13.8811963127659,5.15638126813916));
#822=CARTESIAN_POINT('Ctrl Pts',(-122.215842430012,14.2634250724673,5.5359039052122));
#823=CARTESIAN_POINT('Ctrl Pts',(-122.088191896908,14.4503968266016,5.70521070492985));
#824=CARTESIAN_POINT('Ctrl Pts',(-121.801050733747,14.70393912317,5.9230125603746));
#825=CARTESIAN_POINT('Ctrl Pts',(-121.652839311347,14.7996366431257,6.00129650300974));
#826=CARTESIAN_POINT('Ctrl Pts',(-121.319284381083,14.9304307111251,6.10610303252328));
#827=CARTESIAN_POINT('Ctrl Pts',(-121.13384504049,14.9651060388008,6.13284572860214));
#828=CARTESIAN_POINT('Ctrl Pts',(-120.779608974867,14.9651060388008,6.13284572860214));
#829=CARTESIAN_POINT('Ctrl Pts',(-120.594169634275,14.9304307111251,6.10610303252328));
#830=CARTESIAN_POINT('Ctrl Pts',(-120.260614704011,14.7996366431257,6.00129650300973));
#831=CARTESIAN_POINT('Ctrl Pts',(-120.11240328161,14.70393912317,5.9230125603746));
#832=CARTESIAN_POINT('Ctrl Pts',(-119.825262118449,14.4503968266016,5.70521070492985));
#833=CARTESIAN_POINT('Ctrl Pts',(-119.697611585345,14.2634250724673,5.5359039052122));
#834=CARTESIAN_POINT('Ctrl Pts',(-119.538513183344,13.8811963127659,5.15638126813915));
#835=CARTESIAN_POINT('Ctrl Pts',(-119.506727007679,13.6862849423673,4.94595933362319));
#836=CARTESIAN_POINT('Ctrl Pts',(-119.506727007679,13.5151060388008,4.74559400630712));
#837=CARTESIAN_POINT('Ctrl Pts',(-119.506727007679,13.5151060388008,4.74559400630712));
#838=CARTESIAN_POINT('Ctrl Pts',(-119.506727007679,13.3000341916249,4.49385188062441));
#839=CARTESIAN_POINT('Ctrl Pts',(-119.556131243692,13.0815373686541,4.21075259312773));
#840=CARTESIAN_POINT('Ctrl Pts',(-119.744580742989,12.6902713190955,3.64337773515819));
#841=CARTESIAN_POINT('Ctrl Pts',(-119.881939703887,12.5170779184959,3.35883594853938));
#842=CARTESIAN_POINT('Ctrl Pts',(-120.156997795434,12.2985634866402,2.96610535359455));
#843=CARTESIAN_POINT('Ctrl Pts',(-120.285696833616,12.2195508932902,2.81408135717496));
#844=CARTESIAN_POINT('Ctrl Pts',(-120.512549735814,12.1324391219232,2.63863338578621));
#845=CARTESIAN_POINT('Ctrl Pts',(-120.593697633787,12.1085262858426,2.58901739996071));
#846=CARTESIAN_POINT('Ctrl Pts',(-120.766838109649,12.074883824933,2.5184505609781));
#847=CARTESIAN_POINT('Ctrl Pts',(-120.858819992606,12.0651060388008,2.49749643645626));
#848=CARTESIAN_POINT('Ctrl Pts',(-120.956727007679,12.0651060388008,2.49749643645626));
#849=CARTESIAN_POINT('',(-119.506727007679,13.5151060388008,-1.75000000048143));
#850=CARTESIAN_POINT('',(-119.506727007679,13.5151060388008,8.25000013411039));
#851=CARTESIAN_POINT('Origin',(-120.956727007679,13.5151060388008,-1.75000000048143));
#852=CARTESIAN_POINT('Origin',(-120.956727007679,154.10394690918,8.25000013411039));
#853=CARTESIAN_POINT('',(-120.956727007679,155.55394690918,-0.830683991699981));
#854=CARTESIAN_POINT('',(-119.506727007679,154.10394690918,1.12329777915991));
#855=CARTESIAN_POINT('Ctrl Pts',(-120.956727007679,155.55394690918,-0.830683991699981));
#856=CARTESIAN_POINT('Ctrl Pts',(-120.864425263745,155.55394690918,-0.830683991699981));
#857=CARTESIAN_POINT('Ctrl Pts',(-120.773136647131,155.545038039017,-0.816981423889503));
#858=CARTESIAN_POINT('Ctrl Pts',(-120.597749171239,155.511648471184,-0.766007460961405));
#859=CARTESIAN_POINT('Ctrl Pts',(-120.51365258327,155.487157076233,-0.728735258541361));
#860=CARTESIAN_POINT('Ctrl Pts',(-120.278035696325,155.396316452996,-0.591991571623245));
#861=CARTESIAN_POINT('Ctrl Pts',(-120.14317392104,155.311929596332,-0.466986128642011));
#862=CARTESIAN_POINT('Ctrl Pts',(-119.861021114322,155.080731745105,-0.134041623854246));
#863=CARTESIAN_POINT('Ctrl Pts',(-119.727036607936,154.901465479874,0.114852935527773));
#864=CARTESIAN_POINT('Ctrl Pts',(-119.54923377576,154.512770948567,0.625074435293027));
#865=CARTESIAN_POINT('Ctrl Pts',(-119.506727007679,154.303015541467,0.886608292169042));
#866=CARTESIAN_POINT('Ctrl Pts',(-119.506727007679,154.10394690918,1.1232977791599));
#867=CARTESIAN_POINT('Ctrl Pts',(-119.506727007679,154.10394690918,1.12329777915991));
#868=CARTESIAN_POINT('Ctrl Pts',(-119.506727007679,153.925787115541,1.33512698436773));
#869=CARTESIAN_POINT('Ctrl Pts',(-119.541021813631,153.72718746558,1.56142955856432));
#870=CARTESIAN_POINT('Ctrl Pts',(-119.705019708813,153.342764969119,1.98043198975036));
#871=CARTESIAN_POINT('Ctrl Pts',(-119.834554728872,153.15704427193,2.1732913099111));
#872=CARTESIAN_POINT('Ctrl Pts',(-120.121935973586,152.909094400318,2.42357758636432));
#873=CARTESIAN_POINT('Ctrl Pts',(-120.266466040011,152.816672547967,2.51461041177556));
#874=CARTESIAN_POINT('Ctrl Pts',(-120.594795808862,152.688834983278,2.63912939897019));
#875=CARTESIAN_POINT('Ctrl Pts',(-120.77886259579,152.65394690918,2.67245226111518));
#876=CARTESIAN_POINT('Ctrl Pts',(-121.134591419567,152.65394690918,2.67245226111518));
#877=CARTESIAN_POINT('Ctrl Pts',(-121.318658206495,152.688834983278,2.63912939897019));
#878=CARTESIAN_POINT('Ctrl Pts',(-121.646987975346,152.816672547967,2.51461041177556));
#879=CARTESIAN_POINT('Ctrl Pts',(-121.791518041772,152.909094400318,2.42357758636432));
#880=CARTESIAN_POINT('Ctrl Pts',(-122.078899286485,153.15704427193,2.1732913099111));
#881=CARTESIAN_POINT('Ctrl Pts',(-122.208434306544,153.342764969119,1.98043198975036));
#882=CARTESIAN_POINT('Ctrl Pts',(-122.372432201726,153.72718746558,1.56142955856432));
#883=CARTESIAN_POINT('Ctrl Pts',(-122.406727007679,153.925787115541,1.33512698436772));
#884=CARTESIAN_POINT('Ctrl Pts',(-122.406727007679,154.303015541467,0.886608292169046));
#885=CARTESIAN_POINT('Ctrl Pts',(-122.364220239597,154.512770948567,0.625074435293015));
#886=CARTESIAN_POINT('Ctrl Pts',(-122.186417407422,154.901465479874,0.11485293552775));
#887=CARTESIAN_POINT('Ctrl Pts',(-122.052432901035,155.080731745105,-0.134041623854246));
#888=CARTESIAN_POINT('Ctrl Pts',(-121.770280094318,155.311929596332,-0.466986128642011));
#889=CARTESIAN_POINT('Ctrl Pts',(-121.635418319032,155.396316452996,-0.591991571623245));
#890=CARTESIAN_POINT('Ctrl Pts',(-121.399801432087,155.487157076233,-0.728735258541361));
#891=CARTESIAN_POINT('Ctrl Pts',(-121.315704844119,155.511648471184,-0.766007460961403));
#892=CARTESIAN_POINT('Ctrl Pts',(-121.140317368227,155.545038039017,-0.816981423889501));
#893=CARTESIAN_POINT('Ctrl Pts',(-121.049028751612,155.55394690918,-0.830683991699981));
#894=CARTESIAN_POINT('Ctrl Pts',(-120.956727007679,155.55394690918,-0.830683991699981));
#895=CARTESIAN_POINT('',(-119.506727007679,154.10394690918,-1.7498422319226));
#896=CARTESIAN_POINT('',(-119.506727007679,154.10394690918,8.25000013411039));
#897=CARTESIAN_POINT('Origin',(-120.956727007679,154.10394690918,-1.7498422319226));
#898=CARTESIAN_POINT('Origin',(-273.130723603157,13.5151060388008,8.25000013411039));
#899=CARTESIAN_POINT('',(-273.130723603157,12.0651060388008,2.49749643645627));
#900=CARTESIAN_POINT('',(-271.680723603157,13.5151060388008,4.74559400630712));
#901=CARTESIAN_POINT('Ctrl Pts',(-273.130723603157,12.0651060388008,2.49749643645627));
#902=CARTESIAN_POINT('Ctrl Pts',(-273.228630618229,12.0651060388008,2.49749643645627));
#903=CARTESIAN_POINT('Ctrl Pts',(-273.320612501186,12.074883824933,2.51845056097811));
#904=CARTESIAN_POINT('Ctrl Pts',(-273.493752977048,12.1085262858426,2.58901739996072));
#905=CARTESIAN_POINT('Ctrl Pts',(-273.574900875021,12.1324391219232,2.63863338578622));
#906=CARTESIAN_POINT('Ctrl Pts',(-273.801753777219,12.2195508932902,2.81408135717497));
#907=CARTESIAN_POINT('Ctrl Pts',(-273.930452815402,12.2985634866402,2.96610535359456));
#908=CARTESIAN_POINT('Ctrl Pts',(-274.205510906949,12.5170779184959,3.35883594853939));
#909=CARTESIAN_POINT('Ctrl Pts',(-274.342869867846,12.6902713190956,3.64337773515821));
#910=CARTESIAN_POINT('Ctrl Pts',(-274.531319367143,13.0815373686541,4.21075259312774));
#911=CARTESIAN_POINT('Ctrl Pts',(-274.580723603157,13.3000341916249,4.49385188062442));
#912=CARTESIAN_POINT('Ctrl Pts',(-274.580723603157,13.6862849423673,4.9459593336232));
#913=CARTESIAN_POINT('Ctrl Pts',(-274.548937427491,13.8811963127659,5.15638126813916));
#914=CARTESIAN_POINT('Ctrl Pts',(-274.38983902549,14.2634250724674,5.53590390521221));
#915=CARTESIAN_POINT('Ctrl Pts',(-274.262188492386,14.4503968266016,5.70521070492986));
#916=CARTESIAN_POINT('Ctrl Pts',(-273.975047329225,14.70393912317,5.9230125603746));
#917=CARTESIAN_POINT('Ctrl Pts',(-273.826835906824,14.7996366431258,6.00129650300977));
#918=CARTESIAN_POINT('Ctrl Pts',(-273.493280976561,14.9304307111251,6.1061030325233));
#919=CARTESIAN_POINT('Ctrl Pts',(-273.307841635968,14.9651060388008,6.13284572860214));
#920=CARTESIAN_POINT('Ctrl Pts',(-272.953605570345,14.9651060388008,6.13284572860214));
#921=CARTESIAN_POINT('Ctrl Pts',(-272.768166229752,14.9304307111251,6.10610303252328));
#922=CARTESIAN_POINT('Ctrl Pts',(-272.434611299489,14.7996366431257,6.00129650300973));
#923=CARTESIAN_POINT('Ctrl Pts',(-272.286399877088,14.70393912317,5.92301256037461));
#924=CARTESIAN_POINT('Ctrl Pts',(-271.999258713927,14.4503968266016,5.70521070492986));
#925=CARTESIAN_POINT('Ctrl Pts',(-271.871608180823,14.2634250724673,5.53590390521221));
#926=CARTESIAN_POINT('Ctrl Pts',(-271.712509778822,13.8811963127659,5.15638126813916));
#927=CARTESIAN_POINT('Ctrl Pts',(-271.680723603157,13.6862849423673,4.9459593336232));
#928=CARTESIAN_POINT('Ctrl Pts',(-271.680723603157,13.5151060388008,4.74559400630712));
#929=CARTESIAN_POINT('Ctrl Pts',(-271.680723603157,13.5151060388008,4.74559400630712));
#930=CARTESIAN_POINT('Ctrl Pts',(-271.680723603157,13.3000341916249,4.49385188062441));
#931=CARTESIAN_POINT('Ctrl Pts',(-271.73012783917,13.0815373686541,4.21075259312774));
#932=CARTESIAN_POINT('Ctrl Pts',(-271.918577338467,12.6902713190956,3.64337773515821));
#933=CARTESIAN_POINT('Ctrl Pts',(-272.055936299364,12.5170779184959,3.35883594853939));
#934=CARTESIAN_POINT('Ctrl Pts',(-272.330994390912,12.2985634866402,2.96610535359456));
#935=CARTESIAN_POINT('Ctrl Pts',(-272.459693429094,12.2195508932902,2.81408135717497));
#936=CARTESIAN_POINT('Ctrl Pts',(-272.686546331292,12.1324391219232,2.63863338578622));
#937=CARTESIAN_POINT('Ctrl Pts',(-272.767694229265,12.1085262858426,2.58901739996072));
#938=CARTESIAN_POINT('Ctrl Pts',(-272.940834705127,12.074883824933,2.51845056097811));
#939=CARTESIAN_POINT('Ctrl Pts',(-273.032816588084,12.0651060388008,2.49749643645627));
#940=CARTESIAN_POINT('Ctrl Pts',(-273.130723603157,12.0651060388008,2.49749643645627));
#941=CARTESIAN_POINT('',(-271.680723603157,13.5151060388008,-1.75000000048143));
#942=CARTESIAN_POINT('',(-271.680723603157,13.5151060388008,8.25000013411039));
#943=CARTESIAN_POINT('Origin',(-273.130723603157,13.5151060388008,-1.75000000048143));
#944=CARTESIAN_POINT('Origin',(31.3157918663833,13.5151060388008,8.25000013411039));
#945=CARTESIAN_POINT('',(31.3157918663833,12.0651060388008,2.49749643645624));
#946=CARTESIAN_POINT('',(32.7657918663833,13.5151060388008,4.74559400630711));
#947=CARTESIAN_POINT('Ctrl Pts',(31.3157918663833,12.0651060388008,2.49749643645624));
#948=CARTESIAN_POINT('Ctrl Pts',(31.2178848513108,12.0651060388008,2.49749643645624));
#949=CARTESIAN_POINT('Ctrl Pts',(31.1259029683539,12.074883824933,2.51845056097808));
#950=CARTESIAN_POINT('Ctrl Pts',(30.9527624924916,12.1085262858426,2.58901739996068));
#951=CARTESIAN_POINT('Ctrl Pts',(30.8716145945191,12.1324391219232,2.63863338578619));
#952=CARTESIAN_POINT('Ctrl Pts',(30.6447616923209,12.2195508932902,2.81408135717493));
#953=CARTESIAN_POINT('Ctrl Pts',(30.5160626541384,12.2985634866402,2.96610535359454));
#954=CARTESIAN_POINT('Ctrl Pts',(30.2410045625912,12.5170779184959,3.35883594853937));
#955=CARTESIAN_POINT('Ctrl Pts',(30.103645601694,12.6902713190955,3.64337773515817));
#956=CARTESIAN_POINT('Ctrl Pts',(29.9151961023965,13.0815373686541,4.21075259312772));
#957=CARTESIAN_POINT('Ctrl Pts',(29.8657918663833,13.3000341916249,4.4938518806244));
#958=CARTESIAN_POINT('Ctrl Pts',(29.8657918663833,13.6862849423673,4.94595933362319));
#959=CARTESIAN_POINT('Ctrl Pts',(29.8975780420485,13.8811963127659,5.15638126813916));
#960=CARTESIAN_POINT('Ctrl Pts',(30.0566764440499,14.2634250724673,5.5359039052122));
#961=CARTESIAN_POINT('Ctrl Pts',(30.1843269771539,14.4503968266016,5.70521070492985));
#962=CARTESIAN_POINT('Ctrl Pts',(30.4714681403145,14.70393912317,5.9230125603746));
#963=CARTESIAN_POINT('Ctrl Pts',(30.6196795627154,14.7996366431257,6.00129650300973));
#964=CARTESIAN_POINT('Ctrl Pts',(30.9532344929792,14.9304307111251,6.10610303252328));
#965=CARTESIAN_POINT('Ctrl Pts',(31.1386738335716,14.9651060388008,6.13284572860214));
#966=CARTESIAN_POINT('Ctrl Pts',(31.5105943578929,14.9651060388008,6.13284572860214));
#967=CARTESIAN_POINT('Ctrl Pts',(31.7123025589977,14.9232968573013,6.10065396294456));
#968=CARTESIAN_POINT('Ctrl Pts',(32.0689175039608,14.7693081868452,5.97665268502847));
#969=CARTESIAN_POINT('Ctrl Pts',(32.2238958030657,14.6576117675594,5.88444985994281));
#970=CARTESIAN_POINT('Ctrl Pts',(32.4890183351918,14.3924892354333,5.65291755278736));
#971=CARTESIAN_POINT('Ctrl Pts',(32.5999985872262,14.2153217293656,5.48980078353826));
#972=CARTESIAN_POINT('Ctrl Pts',(32.7381328078188,13.856331538038,5.12965843633286));
#973=CARTESIAN_POINT('Ctrl Pts',(32.7657918663833,13.674809430767,4.93252721909267));
#974=CARTESIAN_POINT('Ctrl Pts',(32.7657918663833,13.5151060388008,4.74559400630711));
#975=CARTESIAN_POINT('Ctrl Pts',(32.7657918663833,13.5151060388008,4.74559400630711));
#976=CARTESIAN_POINT('Ctrl Pts',(32.7657918663833,13.1386688420425,4.30497334236463));
#977=CARTESIAN_POINT('Ctrl Pts',(32.602531875687,12.7512363826634,3.75101623951633));
#978=CARTESIAN_POINT('Ctrl Pts',(32.210997145053,12.3597016520295,3.08266972019822));
#979=CARTESIAN_POINT('Ctrl Pts',(32.0203517569719,12.2253449890109,2.82699691660071));
#980=CARTESIAN_POINT('Ctrl Pts',(31.7289135465403,12.1234829863282,2.62006568091068));
#981=CARTESIAN_POINT('Ctrl Pts',(31.6519394174824,12.1021273945747,2.57566005811917));
#982=CARTESIAN_POINT('Ctrl Pts',(31.487144764457,12.0728363060745,2.51407023253567));
#983=CARTESIAN_POINT('Ctrl Pts',(31.399060365719,12.0651060388008,2.49749643645624));
#984=CARTESIAN_POINT('Ctrl Pts',(31.3157918663833,12.0651060388008,2.49749643645624));
#985=CARTESIAN_POINT('',(32.7657918663833,13.5151060388008,-1.75000000048143));
#986=CARTESIAN_POINT('',(32.7657918663833,13.5151060388008,8.25000013411039));
#987=CARTESIAN_POINT('Origin',(31.3157918663833,13.5151060388008,-1.75000000048143));
#988=CARTESIAN_POINT('Origin',(31.0434498567357,154.10394690918,8.25000013411039));
#989=CARTESIAN_POINT('',(31.0434498567357,155.55394690918,-0.830683991699954));
#990=CARTESIAN_POINT('',(32.4934498567357,154.10394690918,1.12329777915991));
#991=CARTESIAN_POINT('Ctrl Pts',(31.0434498567357,155.55394690918,-0.830683991699954));
#992=CARTESIAN_POINT('Ctrl Pts',(31.1357516006693,155.55394690918,-0.830683991699954));
#993=CARTESIAN_POINT('Ctrl Pts',(31.2270402172838,155.545038039017,-0.816981423889484));
#994=CARTESIAN_POINT('Ctrl Pts',(31.4024276931757,155.511648471184,-0.766007460961381));
#995=CARTESIAN_POINT('Ctrl Pts',(31.4865242811446,155.487157076233,-0.728735258541367));
#996=CARTESIAN_POINT('Ctrl Pts',(31.7221411680892,155.396316452996,-0.591991571623252));
#997=CARTESIAN_POINT('Ctrl Pts',(31.8570029433747,155.311929596332,-0.466986128641984));
#998=CARTESIAN_POINT('Ctrl Pts',(32.1391557500919,155.080731745105,-0.134041623854223));
#999=CARTESIAN_POINT('Ctrl Pts',(32.2731402564787,154.901465479874,0.114852935527773));
#1000=CARTESIAN_POINT('Ctrl Pts',(32.4509430886542,154.512770948567,0.625074435293027));
#1001=CARTESIAN_POINT('Ctrl Pts',(32.4934498567357,154.303015541467,0.886608292169039));
#1002=CARTESIAN_POINT('Ctrl Pts',(32.4934498567357,154.10394690918,1.1232977791599));
#1003=CARTESIAN_POINT('Ctrl Pts',(32.4934498567357,154.10394690918,1.12329777915991));
#1004=CARTESIAN_POINT('Ctrl Pts',(32.4934498567357,153.925787115541,1.33512698436773));
#1005=CARTESIAN_POINT('Ctrl Pts',(32.4591550507835,153.72718746558,1.56142955856433));
#1006=CARTESIAN_POINT('Ctrl Pts',(32.2951571556014,153.342764969119,1.98043198975036));
#1007=CARTESIAN_POINT('Ctrl Pts',(32.1656221355425,153.15704427193,2.1732913099111));
#1008=CARTESIAN_POINT('Ctrl Pts',(31.8782408908287,152.909094400318,2.42357758636432));
#1009=CARTESIAN_POINT('Ctrl Pts',(31.7337108244035,152.816672547967,2.51461041177555));
#1010=CARTESIAN_POINT('Ctrl Pts',(31.405381055552,152.688834983278,2.63912939897018));
#1011=CARTESIAN_POINT('Ctrl Pts',(31.2213142686242,152.65394690918,2.67245226111517));
#1012=CARTESIAN_POINT('Ctrl Pts',(30.8655854448472,152.65394690918,2.67245226111517));
#1013=CARTESIAN_POINT('Ctrl Pts',(30.6815186579195,152.688834983278,2.63912939897018));
#1014=CARTESIAN_POINT('Ctrl Pts',(30.3531888890679,152.816672547967,2.51461041177555));
#1015=CARTESIAN_POINT('Ctrl Pts',(30.2086588226428,152.909094400318,2.42357758636432));
#1016=CARTESIAN_POINT('Ctrl Pts',(29.9212775779289,153.15704427193,2.1732913099111));
#1017=CARTESIAN_POINT('Ctrl Pts',(29.7917425578701,153.342764969119,1.98043198975036));
#1018=CARTESIAN_POINT('Ctrl Pts',(29.627744662688,153.72718746558,1.56142955856433));
#1019=CARTESIAN_POINT('Ctrl Pts',(29.5934498567357,153.925787115541,1.33512698436772));
#1020=CARTESIAN_POINT('Ctrl Pts',(29.5934498567357,154.303015541467,0.88660829216905));
#1021=CARTESIAN_POINT('Ctrl Pts',(29.6359566248172,154.512770948567,0.625074435293027));
#1022=CARTESIAN_POINT('Ctrl Pts',(29.8137594569927,154.901465479874,0.114852935527773));
#1023=CARTESIAN_POINT('Ctrl Pts',(29.9477439633795,155.080731745105,-0.134041623854223));
#1024=CARTESIAN_POINT('Ctrl Pts',(30.2298967700967,155.311929596332,-0.466986128641985));
#1025=CARTESIAN_POINT('Ctrl Pts',(30.3647585453823,155.396316452996,-0.591991571623252));
#1026=CARTESIAN_POINT('Ctrl Pts',(30.6003754323269,155.487157076233,-0.728735258541367));
#1027=CARTESIAN_POINT('Ctrl Pts',(30.6844720202958,155.511648471184,-0.766007460961381));
#1028=CARTESIAN_POINT('Ctrl Pts',(30.8598594961877,155.545038039017,-0.816981423889484));
#1029=CARTESIAN_POINT('Ctrl Pts',(30.9511481128022,155.55394690918,-0.830683991699954));
#1030=CARTESIAN_POINT('Ctrl Pts',(31.0434498567357,155.55394690918,-0.830683991699954));
#1031=CARTESIAN_POINT('',(32.4934498567357,154.10394690918,-1.7498422319226));
#1032=CARTESIAN_POINT('',(32.4934498567357,154.10394690918,8.25000013411039));
#1033=CARTESIAN_POINT('Origin',(31.0434498567357,154.10394690918,-1.7498422319226));
#1034=CARTESIAN_POINT('Origin',(-273.130723603157,154.10394690918,8.25000013411039));
#1035=CARTESIAN_POINT('',(-273.130723603157,155.55394690918,-0.830683991699981));
#1036=CARTESIAN_POINT('',(-271.680723603157,154.10394690918,1.12329777915989));
#1037=CARTESIAN_POINT('Ctrl Pts',(-273.130723603157,155.55394690918,-0.830683991699981));
#1038=CARTESIAN_POINT('Ctrl Pts',(-273.038421859223,155.55394690918,-0.830683991699981));
#1039=CARTESIAN_POINT('Ctrl Pts',(-272.947133242609,155.545038039017,-0.81698142388952));
#1040=CARTESIAN_POINT('Ctrl Pts',(-272.771745766717,155.511648471184,-0.766007460961437));
#1041=CARTESIAN_POINT('Ctrl Pts',(-272.687649178748,155.487157076233,-0.728735258541366));
#1042=CARTESIAN_POINT('Ctrl Pts',(-272.452032291803,155.396316452996,-0.591991571623245));
#1043=CARTESIAN_POINT('Ctrl Pts',(-272.317170516517,155.311929596332,-0.466986128642012));
#1044=CARTESIAN_POINT('Ctrl Pts',(-272.0350177098,155.080731745105,-0.134041623854249));
#1045=CARTESIAN_POINT('Ctrl Pts',(-271.901033203414,154.901465479874,0.114852935527766));
#1046=CARTESIAN_POINT('Ctrl Pts',(-271.723230371238,154.512770948567,0.625074435293018));
#1047=CARTESIAN_POINT('Ctrl Pts',(-271.680723603157,154.303015541467,0.886608292169033));
#1048=CARTESIAN_POINT('Ctrl Pts',(-271.680723603157,154.10394690918,1.12329777915989));
#1049=CARTESIAN_POINT('Ctrl Pts',(-271.680723603157,154.10394690918,1.12329777915988));
#1050=CARTESIAN_POINT('Ctrl Pts',(-271.680723603157,153.925787115541,1.33512698436769));
#1051=CARTESIAN_POINT('Ctrl Pts',(-271.715018409109,153.72718746558,1.56142955856431));
#1052=CARTESIAN_POINT('Ctrl Pts',(-271.879016304291,153.342764969119,1.98043198975034));
#1053=CARTESIAN_POINT('Ctrl Pts',(-272.00855132435,153.15704427193,2.17329130991108));
#1054=CARTESIAN_POINT('Ctrl Pts',(-272.295932569064,152.909094400318,2.4235775863643));
#1055=CARTESIAN_POINT('Ctrl Pts',(-272.440462635489,152.816672547967,2.51461041177553));
#1056=CARTESIAN_POINT('Ctrl Pts',(-272.76879240434,152.688834983278,2.63912939897016));
#1057=CARTESIAN_POINT('Ctrl Pts',(-272.952859191268,152.65394690918,2.67245226111515));
#1058=CARTESIAN_POINT('Ctrl Pts',(-273.308588015045,152.65394690918,2.67245226111515));
#1059=CARTESIAN_POINT('Ctrl Pts',(-273.492654801973,152.688834983278,2.63912939897016));
#1060=CARTESIAN_POINT('Ctrl Pts',(-273.820984570824,152.816672547967,2.51461041177553));
#1061=CARTESIAN_POINT('Ctrl Pts',(-273.965514637249,152.909094400318,2.4235775863643));
#1062=CARTESIAN_POINT('Ctrl Pts',(-274.252895881963,153.15704427193,2.17329130991108));
#1063=CARTESIAN_POINT('Ctrl Pts',(-274.382430902022,153.342764969119,1.98043198975034));
#1064=CARTESIAN_POINT('Ctrl Pts',(-274.546428797204,153.72718746558,1.56142955856431));
#1065=CARTESIAN_POINT('Ctrl Pts',(-274.580723603157,153.925787115541,1.3351269843677));
#1066=CARTESIAN_POINT('Ctrl Pts',(-274.580723603157,154.303015541467,0.886608292169028));
#1067=CARTESIAN_POINT('Ctrl Pts',(-274.538216835075,154.512770948567,0.62507443529301));
#1068=CARTESIAN_POINT('Ctrl Pts',(-274.360414002899,154.901465479874,0.114852935527758));
#1069=CARTESIAN_POINT('Ctrl Pts',(-274.226429496513,155.080731745105,-0.134041623854249));
#1070=CARTESIAN_POINT('Ctrl Pts',(-273.944276689796,155.311929596332,-0.466986128642012));
#1071=CARTESIAN_POINT('Ctrl Pts',(-273.80941491451,155.396316452996,-0.591991571623234));
#1072=CARTESIAN_POINT('Ctrl Pts',(-273.573798027565,155.487157076233,-0.728735258541354));
#1073=CARTESIAN_POINT('Ctrl Pts',(-273.489701439596,155.511648471184,-0.766007460961432));
#1074=CARTESIAN_POINT('Ctrl Pts',(-273.314313963705,155.545038039017,-0.816981423889516));
#1075=CARTESIAN_POINT('Ctrl Pts',(-273.22302534709,155.55394690918,-0.830683991699981));
#1076=CARTESIAN_POINT('Ctrl Pts',(-273.130723603157,155.55394690918,-0.830683991699981));
#1077=CARTESIAN_POINT('',(-271.680723603157,154.10394690918,-1.7498422319226));
#1078=CARTESIAN_POINT('',(-271.680723603157,154.10394690918,8.25000013411039));
#1079=CARTESIAN_POINT('Origin',(-273.130723603157,154.10394690918,-1.7498422319226));
#1080=CARTESIAN_POINT('Origin',(33.168229580518,21.1182146298625,-1.74999986588987));
#1081=CARTESIAN_POINT('',(33.168229580518,11.1182146298625,-1.75000000048143));
#1082=CARTESIAN_POINT('',(33.9682295805179,11.9182146298625,-1.75000000048143));
#1083=CARTESIAN_POINT('Origin',(33.168229580518,11.9182146298625,-1.74999986588987));
#1084=CARTESIAN_POINT('',(33.968229580518,21.1182146298625,7.45000013411013));
#1085=CARTESIAN_POINT('Origin',(33.968229580518,21.1182146298625,-1.74999986588987));
#1086=CARTESIAN_POINT('',(33.168229580518,21.1182146298625,8.25000013411013));
#1087=CARTESIAN_POINT('Origin',(33.168229580518,21.1182146298625,7.45000013411013));
#1088=CARTESIAN_POINT('Origin',(33.168229580518,21.1182146298625,-1.74999986588987));
#1089=CARTESIAN_POINT('Origin',(33.168229580518,136.659108223902,7.45000013411041));
#1090=CARTESIAN_POINT('',(33.968229580518,138.797797565143,7.45000013411042));
#1091=CARTESIAN_POINT('',(33.168229580518,138.797797565143,8.25000013411042));
#1092=CARTESIAN_POINT('Origin',(33.168229580518,138.797797565143,7.45000013411042));
#1093=CARTESIAN_POINT('',(33.168229580518,136.659108223902,8.25000013411041));
#1094=CARTESIAN_POINT('',(33.968229580518,136.659108223902,7.45000013411041));
#1095=CARTESIAN_POINT('Origin',(33.168229580518,138.797797565143,-11.7499998658896));
#1096=CARTESIAN_POINT('',(33.9682295805179,155.187942387439,-1.74984223192261));
#1097=CARTESIAN_POINT('',(33.168229580518,156.118214629863,-1.7498422319226));
#1098=CARTESIAN_POINT('Ctrl Pts',(33.968229580518,155.187942387439,-1.74984223192261));
#1099=CARTESIAN_POINT('Ctrl Pts',(33.968229580518,155.309015777465,-1.74984223192261));
#1100=CARTESIAN_POINT('Ctrl Pts',(33.9429985953739,155.452096244689,-1.74984223192261));
#1101=CARTESIAN_POINT('Ctrl Pts',(33.8605977026179,155.669395662098,-1.74984223192261));
#1102=CARTESIAN_POINT('Ctrl Pts',(33.7921137991386,155.7840961256,-1.74984223192261));
#1103=CARTESIAN_POINT('Ctrl Pts',(33.6484712683732,155.941012281816,-1.74984223192261));
#1104=CARTESIAN_POINT('Ctrl Pts',(33.5508642875796,156.013687178962,-1.74984223192261));
#1105=CARTESIAN_POINT('Ctrl Pts',(33.3725724341364,156.093884305766,-1.74984223192261));
#1106=CARTESIAN_POINT('Ctrl Pts',(33.2623184409857,156.118214629863,-1.7498422319226));
#1107=CARTESIAN_POINT('Ctrl Pts',(33.168229580518,156.118214629863,-1.7498422319226));
#1108=CARTESIAN_POINT('Origin',(33.168229580518,138.797797565143,-11.7499998658896));
#1109=CARTESIAN_POINT('Origin',(33.968229580518,138.797797565143,-11.7499998658896));
#1110=CARTESIAN_POINT('Origin',(-121.031770419482,21.1182146298625,-1.74999986588987));
#1111=CARTESIAN_POINT('',(33.1550408432572,21.1182146298625,8.25000013411013));
#1112=CARTESIAN_POINT('',(-121.031770419482,21.1182146298625,8.25000013411013));
#1113=CARTESIAN_POINT('',(28.5616352118875,16.5248090081034,7.13260250019587));
#1114=CARTESIAN_POINT('Origin',(33.1550408432572,21.1182146298625,-1.74999986588987));
#1115=CARTESIAN_POINT('',(-270.625176055657,16.5248090032982,7.13260249771098));
#1116=CARTESIAN_POINT('',(-121.031770419482,16.5248090081034,7.13260250019587));
#1117=CARTESIAN_POINT('',(-275.218581682221,21.1182146298625,8.25000013411013));
#1118=CARTESIAN_POINT('Origin',(-275.218581682221,21.1182146298625,-1.74999986588987));
#1119=CARTESIAN_POINT('',(-275.231770419482,21.1182146298625,8.25000013411013));
#1120=CARTESIAN_POINT('',(-121.031770419482,21.1182146298625,8.25000013411013));
#1121=CARTESIAN_POINT('',(-275.231770419482,11.1182146298625,-1.75000000048143));
#1122=CARTESIAN_POINT('Origin',(-275.231770419482,21.1182146298625,-1.74999986588987));
#1123=CARTESIAN_POINT('',(-266.031770419482,11.1182146298625,-1.75000000048143));
#1124=CARTESIAN_POINT('Origin',(23.9682295805179,122.200001817942,8.25000013411038));
#1125=CARTESIAN_POINT('',(-275.231770419482,138.797797565143,8.25000013411042));
#1126=CARTESIAN_POINT('',(23.9682295805179,138.797797565143,8.25000013411042));
#1127=CARTESIAN_POINT('',(-275.231770419482,69.1591082239021,8.25000013411025));
#1128=CARTESIAN_POINT('',(-275.218581682221,131.38681306146,8.2500001341104));
#1129=CARTESIAN_POINT('',(-275.218581682221,16.1182146298625,8.25000013411012));
#1130=CARTESIAN_POINT('',(33.1550408432572,131.38681306146,8.2500001341104));
#1131=CARTESIAN_POINT('',(-121.031770419482,131.38681306146,8.2500001341104));
#1132=CARTESIAN_POINT('',(33.1550408432572,151.118214629863,8.25000013411045));
#1133=CARTESIAN_POINT('Origin',(23.9682295805179,138.797797565143,-11.7499998658896));
#1134=CARTESIAN_POINT('',(-275.231770419482,156.118214629863,-1.7498422319226));
#1135=CARTESIAN_POINT('',(23.9682295805179,156.118214629863,-1.7498422319226));
#1136=CARTESIAN_POINT('Origin',(-275.231770419482,138.797797565143,-11.7499998658896));
#1137=CARTESIAN_POINT('Origin',(23.9682295805179,156.118214629863,-1.7498422319226));
#1138=CARTESIAN_POINT('',(33.968229580518,151.918214629863,-1.74984223192261));
#1139=CARTESIAN_POINT('',(33.9682295805179,151.118214629863,-1.74984223192261));
#1140=CARTESIAN_POINT('',(29.168229580518,151.918214629863,-1.74984223192261));
#1141=CARTESIAN_POINT('',(26.468229580518,151.918214629863,-1.74984223192261));
#1142=CARTESIAN_POINT('',(29.168229580518,151.318214629862,-1.74984223192261));
#1143=CARTESIAN_POINT('',(29.168229580518,153.618214629863,-1.74984223192261));
#1144=CARTESIAN_POINT('',(-271.231770419482,151.318214629862,-1.74984223192261));
#1145=CARTESIAN_POINT('',(23.9682295805179,151.318214629862,-1.74984223192261));
#1146=CARTESIAN_POINT('',(-271.231770419482,152.118214629863,-1.74984223192261));
#1147=CARTESIAN_POINT('',(-271.231770419482,86.1182146298625,-1.74984223192274));
#1148=CARTESIAN_POINT('',(-276.031770419482,152.118214629863,-1.74984223192261));
#1149=CARTESIAN_POINT('',(-123.531770419482,152.118214629863,-1.74984223192261));
#1150=CARTESIAN_POINT('',(-276.031770419482,155.187942387439,-1.74984223192261));
#1151=CARTESIAN_POINT('',(-276.031770419482,151.118214629863,-1.74984223192261));
#1152=CARTESIAN_POINT('Ctrl Pts',(-275.231770419482,156.118214629863,-1.7498422319226));
#1153=CARTESIAN_POINT('Ctrl Pts',(-275.32585927995,156.118214629863,-1.7498422319226));
#1154=CARTESIAN_POINT('Ctrl Pts',(-275.4361132731,156.093884305766,-1.74984223192261));
#1155=CARTESIAN_POINT('Ctrl Pts',(-275.614405126544,156.013687178962,-1.74984223192261));
#1156=CARTESIAN_POINT('Ctrl Pts',(-275.712012107337,155.941012281816,-1.74984223192261));
#1157=CARTESIAN_POINT('Ctrl Pts',(-275.855654638103,155.7840961256,-1.74984223192261));
#1158=CARTESIAN_POINT('Ctrl Pts',(-275.924138541582,155.669395662098,-1.74984223192261));
#1159=CARTESIAN_POINT('Ctrl Pts',(-276.006539434338,155.452096244689,-1.74984223192261));
#1160=CARTESIAN_POINT('Ctrl Pts',(-276.031770419482,155.309015777465,-1.74984223192261));
#1161=CARTESIAN_POINT('Ctrl Pts',(-276.031770419482,155.187942387439,-1.74984223192261));
#1162=CARTESIAN_POINT('Origin',(-275.231770419482,138.797797565143,-11.7499998658896));
#1163=CARTESIAN_POINT('',(-276.031770419482,138.797797565143,7.45000013411043));
#1164=CARTESIAN_POINT('Origin',(-276.031770419482,138.797797565143,-11.7499998658896));
#1165=CARTESIAN_POINT('Origin',(-275.231770419482,138.797797565143,7.45000013411043));
#1166=CARTESIAN_POINT('Origin',(-275.231770419482,69.1591082239021,7.45000013411025));
#1167=CARTESIAN_POINT('',(-276.031770419482,21.1182146298625,7.45000013411013));
#1168=CARTESIAN_POINT('Origin',(-275.231770419482,21.1182146298625,7.45000013411013));
#1169=CARTESIAN_POINT('',(-276.031770419482,69.1591082239021,7.45000013411025));
#1170=CARTESIAN_POINT('Origin',(-275.231770419482,21.1182146298625,-1.74999986588987));
#1171=CARTESIAN_POINT('',(-276.031770419482,11.9182146298625,-1.75000000048143));
#1172=CARTESIAN_POINT('Origin',(-275.231770419482,11.9182146298625,-1.74999986588987));
#1173=CARTESIAN_POINT('Origin',(-276.031770419482,21.1182146298625,-1.74999986588987));
#1174=CARTESIAN_POINT('Origin',(-276.031770419482,16.1182146298625,-1.75000000048143));
#1175=CARTESIAN_POINT('',(-276.031770419482,16.1182146298625,-1.75000000048143));
#1176=CARTESIAN_POINT('Origin',(-275.218581682221,16.1182146298625,-1.74999986588988));
#1177=CARTESIAN_POINT('',(-266.031770419482,21.1182146298625,2.20000002980232));
#1178=CARTESIAN_POINT('Origin',(-275.218581682221,11.9314033863444,-1.74999986588989));
#1179=CARTESIAN_POINT('',(-266.031770419482,122.200001817942,2.20000002980232));
#1180=CARTESIAN_POINT('',(-266.031770419482,16.1182146298625,2.19999998509883));
#1181=CARTESIAN_POINT('Origin',(-275.218581682221,131.38681306146,-1.7499998658896));
#1182=CARTESIAN_POINT('Origin',(-266.031770419482,11.9314033863444,-1.74999986588989));
#1183=CARTESIAN_POINT('',(23.9682295805179,21.1182146298625,2.20000002980232));
#1184=CARTESIAN_POINT('Origin',(33.1550408432572,11.9314033863444,-1.74999986588989));
#1185=CARTESIAN_POINT('',(-266.031770419482,21.1182146298625,2.20000002980232));
#1186=CARTESIAN_POINT('Origin',(33.1550408432572,151.118214629863,-1.74999986588955));
#1187=CARTESIAN_POINT('',(23.9682295805179,122.200001817942,2.20000002980232));
#1188=CARTESIAN_POINT('Origin',(33.1550408432572,131.38681306146,-1.7499998658896));
#1189=CARTESIAN_POINT('',(23.968229580518,151.118214629863,2.19999998509883));
#1190=CARTESIAN_POINT('Origin',(-121.031770419482,131.38681306146,-1.7499998658896));
#1191=CARTESIAN_POINT('',(-121.031770419482,122.200001817942,2.20000002980232));
#1192=CARTESIAN_POINT('Origin',(33.968229580518,151.118214629863,-1.75000000048143));
#1193=CARTESIAN_POINT('',(33.9682295805179,16.1182146298625,-1.75000000048143));
#1194=CARTESIAN_POINT('Origin',(-271.231770419482,16.1182146298625,1.99999998509884));
#1195=CARTESIAN_POINT('',(-271.231770419482,151.318214629862,2.20000000745058));
#1196=CARTESIAN_POINT('',(-271.231770419482,151.318214629862,0.125078876588112));
#1197=CARTESIAN_POINT('',(-271.231770419482,15.9182146298625,2.20000000745058));
#1198=CARTESIAN_POINT('',(-271.231770419482,16.1182146298625,2.19999998509883));
#1199=CARTESIAN_POINT('',(-271.231770419482,15.9182146298625,-1.75000000048143));
#1200=CARTESIAN_POINT('',(-271.231770419482,15.9182146298625,0.124999992308706));
#1201=CARTESIAN_POINT('',(-271.231770419482,16.1182146298625,-1.75000000048143));
#1202=CARTESIAN_POINT('Origin',(29.168229580518,151.118214629863,1.99999998509884));
#1203=CARTESIAN_POINT('',(29.168229580518,15.9182146298625,-1.75000000048143));
#1204=CARTESIAN_POINT('',(29.168229580518,151.118214629863,-1.75000000048143));
#1205=CARTESIAN_POINT('',(29.168229580518,15.9182146298625,2.20000000745058));
#1206=CARTESIAN_POINT('',(29.168229580518,15.9182146298625,0.124999992308706));
#1207=CARTESIAN_POINT('',(29.168229580518,151.318214629862,2.20000000745058));
#1208=CARTESIAN_POINT('',(29.168229580518,151.118214629863,2.19999998509883));
#1209=CARTESIAN_POINT('',(29.168229580518,151.318214629862,0.125078876588112));
#1210=CARTESIAN_POINT('Origin',(-266.031770419482,11.1182146298625,-1.75000000048143));
#1211=CARTESIAN_POINT('',(-266.031770419482,15.9182146298625,-1.75000000048143));
#1212=CARTESIAN_POINT('Origin',(23.9682295805179,151.318214629862,-1.74984223192261));
#1213=CARTESIAN_POINT('',(23.9682295805179,151.318214629862,2.20000002980232));
#1214=CARTESIAN_POINT('Origin',(-266.031770419482,16.1182146298625,2.20000002980232));
#1215=CARTESIAN_POINT('',(-266.031770419482,15.9182146298625,2.20000002980232));
#1216=CARTESIAN_POINT('Origin',(-266.031770419482,15.9182146298625,-1.75000000048143));
#1217=UNCERTAINTY_MEASURE_WITH_UNIT(LENGTH_MEASURE(0.01),#1221,
'DISTANCE_ACCURACY_VALUE',
'Maximum model space distance between geometric entities at asserted c
onnectivities');
#1218=UNCERTAINTY_MEASURE_WITH_UNIT(LENGTH_MEASURE(0.01),#1221,
'DISTANCE_ACCURACY_VALUE',
'Maximum model space distance between geometric entities at asserted c
onnectivities');
#1219=(
GEOMETRIC_REPRESENTATION_CONTEXT(3)
GLOBAL_UNCERTAINTY_ASSIGNED_CONTEXT((#1217))
GLOBAL_UNIT_ASSIGNED_CONTEXT((#1221,#1223,#1224))
REPRESENTATION_CONTEXT('','3D')
);
#1220=(
GEOMETRIC_REPRESENTATION_CONTEXT(3)
GLOBAL_UNCERTAINTY_ASSIGNED_CONTEXT((#1218))
GLOBAL_UNIT_ASSIGNED_CONTEXT((#1221,#1223,#1224))
REPRESENTATION_CONTEXT('','3D')
);
#1221=(
LENGTH_UNIT()
NAMED_UNIT(*)
SI_UNIT(.MILLI.,.METRE.)
);
#1222=(
LENGTH_UNIT()
NAMED_UNIT(*)
SI_UNIT($,.METRE.)
);
#1223=(
NAMED_UNIT(*)
PLANE_ANGLE_UNIT()
SI_UNIT($,.RADIAN.)
);
#1224=(
NAMED_UNIT(*)
SI_UNIT($,.STERADIAN.)
SOLID_ANGLE_UNIT()
);
#1225=SHAPE_DEFINITION_REPRESENTATION(#1226,#1227);
#1226=PRODUCT_DEFINITION_SHAPE('',$,#1229);
#1227=SHAPE_REPRESENTATION('',(#597),#1219);
#1228=PRODUCT_DEFINITION_CONTEXT('part definition',#1233,'design');
#1229=PRODUCT_DEFINITION('2026-09-15-21-14-40-050','top case',#1230,#1228);
#1230=PRODUCT_DEFINITION_FORMATION('',$,#1235);
#1231=PRODUCT_RELATED_PRODUCT_CATEGORY('top case','top case',(#1235));
#1232=APPLICATION_PROTOCOL_DEFINITION('international standard',
'automotive_design',2009,#1233);
#1233=APPLICATION_CONTEXT(
'Core Data for Automotive Mechanical Design Process');
#1234=PRODUCT_CONTEXT('part definition',#1233,'mechanical');
#1235=PRODUCT('2026-09-15-21-14-40-050','top case',$,(#1234));
#1236=PRESENTATION_STYLE_ASSIGNMENT((#1238));
#1237=PRESENTATION_STYLE_ASSIGNMENT((#1239));
#1238=SURFACE_STYLE_USAGE(.BOTH.,#1240);
#1239=SURFACE_STYLE_USAGE(.BOTH.,#1241);
#1240=SURFACE_SIDE_STYLE('',(#1242));
#1241=SURFACE_SIDE_STYLE('',(#1243));
#1242=SURFACE_STYLE_FILL_AREA(#1244);
#1243=SURFACE_STYLE_FILL_AREA(#1245);
#1244=FILL_AREA_STYLE('Steel - Satin',(#1246));
#1245=FILL_AREA_STYLE('Paek (Beige)',(#1247));
#1246=FILL_AREA_STYLE_COLOUR('Steel - Satin',#1248);
#1247=FILL_AREA_STYLE_COLOUR('Paek (Beige)',#1249);
#1248=COLOUR_RGB('Steel - Satin',0.627450980392157,0.627450980392157,0.627450980392157);
#1249=COLOUR_RGB('Paek (Beige)',0.898039215686275,0.792156862745098,0.619607843137255);
ENDSEC;
END-ISO-10303-21;
